<svg width="20" height="21" viewBox="0 0 20 21" fill="none" xmlns="http://www.w3.org/2000/svg">
<g clip-path="url(#clip0)">
<path d="M16.0093 20.5H3.99072C1.79089 20.5 0 18.7093 0 16.5079V4.49213C0 2.29073 1.79089 0.5 3.99072 0.5H16.0093C18.2091 0.5 20 2.29073 20 4.49213V16.5079C20 18.7093 18.2091 20.5 16.0093 20.5Z" fill="white"/>
<path d="M11.3988 18.6283V11.6192H13.7516L14.1039 8.88775H11.3988V7.14343C11.3988 6.35261 11.6181 5.81375 12.7525 5.81375L14.199 5.81331V3.37011C13.9488 3.33696 13.0902 3.2627 12.0907 3.2627C10.0053 3.2627 8.5774 4.53579 8.5774 6.87334V8.88775H6.21887V11.6192H8.5774V18.6283H11.3988Z" fill="#333333"/>
</g>
<defs>
<clipPath id="clip0">
<rect width="20" height="20" fill="white" transform="translate(0 0.5)"/>
</clipPath>
</defs>
</svg>
