<svg width="20" height="21" viewBox="0 0 20 21" fill="none" xmlns="http://www.w3.org/2000/svg">
<g clip-path="url(#clip0)">
<path d="M10 2.3025C12.67 2.3025 12.9867 2.3125 14.0417 2.36083C16.7517 2.48417 18.0175 3.77 18.1408 6.46C18.1892 7.51417 18.1983 7.83083 18.1983 10.5008C18.1983 13.1717 18.1883 13.4875 18.1408 14.5417C18.0167 17.2292 16.7542 18.5175 14.0417 18.6408C12.9867 18.6892 12.6717 18.6992 10 18.6992C7.33 18.6992 7.01333 18.6892 5.95917 18.6408C3.2425 18.5167 1.98333 17.225 1.86 14.5408C1.81167 13.4867 1.80167 13.1708 1.80167 10.5C1.80167 7.83 1.8125 7.51417 1.86 6.45917C1.98417 3.77 3.24667 2.48333 5.95917 2.36C7.01417 2.3125 7.33 2.3025 10 2.3025V2.3025ZM10 0.5C7.28417 0.5 6.94417 0.511667 5.8775 0.56C2.24583 0.726667 0.2275 2.74167 0.0608333 6.37667C0.0116667 7.44417 0 7.78417 0 10.5C0 13.2158 0.0116667 13.5567 0.06 14.6233C0.226667 18.255 2.24167 20.2733 5.87667 20.44C6.94417 20.4883 7.28417 20.5 10 20.5C12.7158 20.5 13.0567 20.4883 14.1233 20.44C17.7517 20.2733 19.775 18.2583 19.9392 14.6233C19.9883 13.5567 20 13.2158 20 10.5C20 7.78417 19.9883 7.44417 19.94 6.3775C19.7767 2.74917 17.7592 0.7275 14.1242 0.560833C13.0567 0.511667 12.7158 0.5 10 0.5V0.5ZM10 5.365C7.16417 5.365 4.865 7.66417 4.865 10.5C4.865 13.3358 7.16417 15.6358 10 15.6358C12.8358 15.6358 15.135 13.3367 15.135 10.5C15.135 7.66417 12.8358 5.365 10 5.365ZM10 13.8333C8.15917 13.8333 6.66667 12.3417 6.66667 10.5C6.66667 8.65917 8.15917 7.16667 10 7.16667C11.8408 7.16667 13.3333 8.65917 13.3333 10.5C13.3333 12.3417 11.8408 13.8333 10 13.8333ZM15.3383 3.9625C14.675 3.9625 14.1375 4.5 14.1375 5.1625C14.1375 5.825 14.675 6.3625 15.3383 6.3625C16.0008 6.3625 16.5375 5.825 16.5375 5.1625C16.5375 4.5 16.0008 3.9625 15.3383 3.9625Z" fill="white"/>
</g>
<defs>
<clipPath id="clip0">
<rect width="20" height="20" fill="white" transform="translate(0 0.5)"/>
</clipPath>
</defs>
</svg>
