<svg width="20" height="20" viewBox="0 0 20 20" fill="none" xmlns="http://www.w3.org/2000/svg">
<path d="M19.9995 10.0013C19.9995 12.819 19.9995 15.6371 19.9995 18.4548C19.9995 19.4523 19.4471 19.9997 18.4376 19.9997C12.817 20.0001 7.19589 20.0001 1.57525 19.9997C0.539968 19.9997 0 19.4574 0 18.4235C0 12.8029 0 7.18181 0 1.5612C0 0.553084 0.54227 0.000690493 1.53935 0.000690493C7.17518 -0.000230164 12.811 -0.000230164 18.4468 0.000690493C19.455 0.000690493 20 0.54618 20 1.54785C19.9995 4.36598 19.9995 7.18365 19.9995 10.0013ZM10.699 8.60929C10.699 8.31698 10.6838 8.10983 10.7022 7.90545C10.7349 7.54639 10.6125 7.38942 10.2263 7.40369C9.55279 7.42855 8.87702 7.42947 8.20356 7.40323C7.82425 7.3885 7.70364 7.53258 7.70962 7.8944C7.72435 8.74831 7.71331 9.60268 7.71331 10.457C7.71331 12.5101 7.71975 14.5632 7.70778 16.6162C7.70548 16.9909 7.80813 17.1608 8.21461 17.1461C8.91799 17.1203 9.62368 17.1235 10.3271 17.1452C10.705 17.1567 10.809 17.0144 10.8021 16.648C10.781 15.5243 10.7837 14.4002 10.7984 13.2766C10.8067 12.6201 10.8155 11.9591 10.8956 11.3087C11.0038 10.4322 11.6118 9.92583 12.4842 9.89867C13.2433 9.87519 13.769 10.2679 13.9374 11.0256C14.0116 11.3584 14.0525 11.705 14.0553 12.0461C14.0677 13.5146 14.0608 14.9835 14.0608 16.4519C14.0608 16.6572 14.0608 16.863 14.0608 17.1387C14.9654 17.1387 15.8165 17.1272 16.6672 17.1438C17.052 17.1516 17.1888 17.0181 17.1805 16.6213C17.1367 14.6005 17.1998 12.5736 17.0705 10.5588C16.8937 7.80924 15.1734 6.93646 12.7323 7.28631C11.8954 7.40553 11.2698 7.90729 10.699 8.60929ZM5.87935 17.1392C5.91157 17.0117 5.93229 16.9689 5.93229 16.9256C5.93505 13.869 5.93367 10.812 5.94287 7.75538C5.94379 7.46169 5.80707 7.40553 5.5585 7.40875C4.91449 7.41658 4.27003 7.4106 3.62557 7.4106C2.86326 7.4106 2.86188 7.4106 2.86188 8.15679C2.86142 10.7641 2.86142 13.3714 2.86142 15.9787C2.86142 17.1392 2.86142 17.1392 4.02698 17.1392C4.65026 17.1392 5.27401 17.1392 5.87935 17.1392ZM4.39018 6.21144C5.39554 6.21512 6.19836 5.43855 6.20618 4.45483C6.21401 3.48492 5.39462 2.6508 4.42378 2.64159C3.45432 2.63193 2.63862 3.45499 2.6377 4.4424C2.63724 5.4206 3.4175 6.20822 4.39018 6.21144Z" fill="white"/>
</svg>
