<svg width="96" height="75" viewBox="0 0 96 75" fill="none" xmlns="http://www.w3.org/2000/svg">
<path d="M67.4713 19.0261C61.9883 19.0261 56.6286 20.6604 52.0699 23.7224C47.5111 26.7843 43.9582 31.1363 41.8604 36.228C39.7626 41.3197 39.2143 46.9223 40.2847 52.3273C41.3551 57.7322 43.9961 62.6967 47.8738 66.5929C51.7516 70.489 56.6917 73.1418 62.0695 74.2157C67.4473 75.2896 73.0213 74.7365 78.0862 72.6261C83.1512 70.5158 87.4798 66.9431 90.5245 62.3599C93.5692 57.7767 95.1933 52.3889 95.1913 46.8779C95.1834 39.4919 92.26 32.4108 87.0629 27.189C81.8659 21.9672 74.8197 19.0314 67.4713 19.0261ZM67.4713 70.5183C62.8194 70.5183 58.2722 69.1319 54.4044 66.5342C50.5365 63.9366 47.5218 60.2444 45.7416 55.9247C43.9615 51.605 43.4957 46.8517 44.4033 42.2659C45.3108 37.6801 47.5508 33.4678 50.8401 30.1616C54.1295 26.8555 58.3203 24.6039 62.8828 23.6918C67.4452 22.7796 72.1743 23.2478 76.472 25.037C80.7697 26.8263 84.4431 29.8564 87.0275 33.744C89.6119 37.6317 90.9913 42.2023 90.9913 46.8779C90.9833 53.1453 88.5028 59.1537 84.0937 63.5854C79.6846 68.0171 73.7067 70.5103 67.4713 70.5183Z" fill="white"/>
<path d="M21.2814 1.23546C21.0972 0.913949 20.8321 0.646915 20.5126 0.461222C20.1931 0.275529 19.8305 0.177734 19.4614 0.177734C19.0923 0.177734 18.7297 0.275529 18.4102 0.461222C18.0906 0.646915 17.8255 0.913949 17.6414 1.23546L0.281373 31.4493C0.0974221 31.7696 0.00038237 32.1328 1.12798e-06 32.5026C-0.000380114 32.8723 0.0958855 33.2357 0.279176 33.5564C0.462466 33.877 0.726397 34.1435 1.04443 34.3294C1.36247 34.5153 1.72354 34.614 2.09143 34.6155H36.8114C37.1793 34.614 37.5404 34.5153 37.8584 34.3294C38.1764 34.1435 38.4402 33.877 38.6235 33.5564C38.8068 33.2357 38.9031 32.8723 38.9027 32.5026C38.9023 32.1328 38.8053 31.7696 38.6213 31.4493L21.2814 1.23546ZM5.74133 30.3839L19.4614 6.5023L33.1814 30.3839H5.74133Z" fill="white"/>
</svg>
