<?xml version="1.0" encoding="utf-8"?>
<!-- Generator: Adobe Illustrator 25.4.1, SVG Export Plug-In . SVG Version: 6.00 Build 0)  -->
<svg version="1.1" id="Capa_1" xmlns="http://www.w3.org/2000/svg" xmlns:xlink="http://www.w3.org/1999/xlink" x="0px" y="0px"
	 viewBox="0 0 792 612" style="enable-background:new 0 0 792 612;" xml:space="preserve">
<style type="text/css">
	
		.st0{clip-path:url(#SVGID_00000109028664171295999490000011717310549848736394_);fill:url(#SVGID_00000049931140896343852470000011204891273843306392_);}
	
		.st1{clip-path:url(#SVGID_00000166667138180848372570000018042467611308620207_);fill:url(#SVGID_00000178896730078343067210000002547068651244663968_);}
	
		.st2{clip-path:url(#SVGID_00000137127496762811422600000017577081929204370365_);fill:url(#SVGID_00000009587335082935851570000010985875655719347108_);}
	
		.st3{clip-path:url(#SVGID_00000106140978254667272090000017943732074151506842_);fill:url(#SVGID_00000085960757627674092360000016263062756156951171_);}
	
		.st4{clip-path:url(#SVGID_00000016069965763791991170000003013328305041669785_);fill:url(#SVGID_00000123439708151094456290000015873947057279727024_);}
	
		.st5{clip-path:url(#SVGID_00000064344132603960137820000011273657398683332992_);fill:url(#SVGID_00000103226480307403176360000011586744369571763107_);}
	
		.st6{clip-path:url(#SVGID_00000093143260699545380440000018356318037377517191_);fill:url(#SVGID_00000156583841640057263760000000031874344606235289_);}
	
		.st7{clip-path:url(#SVGID_00000060718881334252397130000011479052038276261005_);fill:url(#SVGID_00000037666220333707416790000017908312179476228779_);}
</style>
<g>
	<defs>
		<path id="SVGID_00000152241418169042966760000013368025702156225678_" d="M471.8,409.39c-25.27,0.04-50.53,0.01-75.8,0.01
			c-19.11,0-38.22,0.02-57.33,0.01c19.11,0.01,38.22-0.01,57.33-0.01C421.27,409.4,446.53,409.43,471.8,409.39z M499.4,381.87
			c-0.01,16.51-11.04,27.5-27.59,27.52c-25.27,0.04-50.53,0.01-75.8,0.01c-19.11,0-38.22,0.02-57.33,0.01
			c-6.37,0-12.74-0.01-19.11-0.03c-13.37-0.03-23.7-8.23-26.42-20.86c-0.42-1.95-0.52-4-0.52-6.01
			c-0.03-50.85-0.05-101.71-0.01-152.56c0.01-13.7,8.07-24.05,20.79-26.79c2.36-0.51,4.85-0.56,7.28-0.57
			c50.32-0.03,100.65-0.03,150.97-0.02c16.76,0.01,27.75,10.94,27.76,27.67C499.42,280.8,499.42,331.34,499.4,381.87z
			 M491.75,230.18c0-12.28-7.6-19.93-19.8-19.94c-50.54-0.02-101.07-0.01-151.61,0.01c-2,0-4.07,0.07-6,0.54
			c-8.88,2.18-14.1,9.39-14.11,19.41c-0.02,50.32,0.17,100.65-0.14,150.97c-0.07,11.89,8.44,20.94,20.89,20.72
			c9.35-0.17,18.71-0.23,28.06-0.24c15.59-0.02,31.19,0.11,46.78,0.11c25.27,0,50.54,0.01,75.8-0.01
			c12.48-0.01,20.1-7.56,20.1-19.96C491.77,331.25,491.77,280.72,491.75,230.18z M395.84,401.76c-15.59,0-31.19-0.12-46.78-0.11
			C364.66,401.63,380.25,401.76,395.84,401.76c25.27,0,50.54,0.01,75.8-0.01C446.38,401.77,421.11,401.76,395.84,401.76z
			 M443.55,321.91c0,6.32,0.01,12.64,0.01,18.95c0,12.42,0,24.85,0,37.27c-0.01-12.42,0-24.85,0-37.27
			C443.56,334.54,443.55,328.23,443.55,321.91z M363.44,300.84c-0.04,7.72-4.78,14.74-12.19,17.37c-2.4,0.85-2.91,2.01-2.9,4.34
			c0.09,18.58,0.05,37.17,0.05,55.75c0,1.06,0.29,2.36-0.2,3.12c-0.77,1.19-2.1,2.8-3.2,2.81c-1.3,0.01-2.94-1.25-3.83-2.41
			c-0.65-0.85-0.4-2.44-0.4-3.71c-0.02-18.58-0.04-37.17,0.02-55.75c0.01-2.13-0.38-3.31-2.73-4.13
			c-7.49-2.63-12.15-9.52-12.19-17.32c-0.04-7.96,4.63-15.01,12.17-17.68c2.26-0.81,2.77-1.88,2.76-4.07
			c-0.09-15.18-0.05-30.37-0.04-45.56c0-1.06-0.28-2.45,0.26-3.1c1.03-1.22,2.56-2.72,3.91-2.75c1.1-0.03,2.48,1.77,3.3,3.04
			c0.49,0.76,0.16,2.07,0.16,3.13c0.01,14.87,0,29.73,0,44.6c0,1.16,0,2.32,0,3.57c1,0.38,1.88,0.7,2.76,1.04
			C358.58,285.97,363.48,293.03,363.44,300.84z M355.79,300.65c-0.06-6.06-5.23-11.15-11.27-11.08
			c-6.11,0.07-11.04,5.12-11.01,11.27c0.04,6.19,4.97,11.03,11.2,10.99C350.86,311.8,355.86,306.75,355.79,300.65z M466.11,281.03
			c0.07,7.84-4.44,14.92-11.82,17.59c-2.68,0.97-3.13,2.32-3.12,4.82c0.08,24.85,0.05,49.69,0.04,74.54c0,1.26,0.27,2.84-0.36,3.72
			c-0.85,1.2-2.49,2.62-3.71,2.55c-1.21-0.07-2.55-1.72-3.38-2.98c-0.5-0.75-0.18-2.06-0.18-3.12c-0.01-12.42,0-24.85,0-37.27
			c0-6.32-0.01-12.64-0.01-18.95c0-6.32,0.01-12.64,0.05-18.95c0.01-2.14-0.35-3.31-2.69-4.12c-7.54-2.6-12.38-9.73-12.38-17.56
			c0-7.84,4.81-14.85,12.38-17.57c2.05-0.74,2.74-1.64,2.71-3.82c-0.13-9.24-0.08-18.48-0.04-27.71c0.01-3.17,1.43-4.8,3.93-4.63
			c3.08,0.22,3.7,2.38,3.7,4.95c0,9.03,0.09,18.05-0.06,27.08c-0.04,2.4,0.65,3.46,2.97,4.3
			C461.42,266.53,466.04,273.39,466.11,281.03z M458.46,281.35c0.03-6.19-4.85-11.12-11.05-11.14c-6.18-0.02-11.2,4.9-11.23,11.01
			c-0.03,6.06,5.04,11.2,11.1,11.25C453.36,292.51,458.43,287.47,458.46,281.35z M414.74,328.18c-0.03,7.84-4.65,14.73-12.11,17.38
			c-2.39,0.85-2.9,1.99-2.87,4.32c0.13,9.98,0.08,19.96,0.04,29.94c-0.02,3.65-2.91,5.95-5.44,4.16c-1.19-0.85-2.07-2.95-2.1-4.5
			c-0.18-10.08-0.05-20.17-0.17-30.26c-0.01-1.05-0.79-2.69-1.64-3.04c-8.62-3.6-13.39-10.05-13.26-18.31
			c0.14-8.46,5.11-14.82,14.07-17.98c0.2-0.07,0.39-0.16,0.9-0.36c0-11.48,0-22.83,0-34.19c0-13.91,0-27.82,0-41.73
			c0-0.95-0.34-2.2,0.13-2.8c1-1.27,2.42-3.04,3.68-3.04c1.26,0,2.7,1.75,3.7,3.02c0.47,0.59,0.13,1.85,0.13,2.8
			c0,24.1,0,48.2,0,72.3c0,1.16,0,2.33,0,3.68c0.93,0.32,1.81,0.6,2.68,0.93C409.93,313.29,414.78,320.3,414.74,328.18z
			 M407.09,328.21c0.04-6.14-4.91-11.22-11.01-11.28c-6.07-0.06-11.16,4.97-11.22,11.09c-0.06,6.17,4.85,11.15,11.03,11.19
			C402.12,339.24,407.04,334.41,407.09,328.21z"/>
	</defs>
	<clipPath id="SVGID_00000013890125049393461590000002843440641698211210_">
		<use xlink:href="#SVGID_00000152241418169042966760000013368025702156225678_"  style="overflow:visible;"/>
	</clipPath>
	
		<linearGradient id="SVGID_00000026875981978391895210000006349633266922279346_" gradientUnits="userSpaceOnUse" x1="287.5026" y1="305.9798" x2="506.2795" y2="305.9798">
		<stop  offset="0" style="stop-color:#86D79C"/>
		<stop  offset="1" style="stop-color:#7AD1C2"/>
	</linearGradient>
	
		<rect x="287.5" y="198.25" style="clip-path:url(#SVGID_00000013890125049393461590000002843440641698211210_);fill:url(#SVGID_00000026875981978391895210000006349633266922279346_);" width="218.78" height="215.47"/>
</g>
</svg>
