<svg width="200" height="35" viewBox="0 0 200 35" fill="none" xmlns="http://www.w3.org/2000/svg">
<path d="M0 0H15.1427C24.7789 0 32.5955 7.86513 32.5955 17.5491C32.5955 27.1349 24.7784 35 15.1427 35H0V0ZM15.5355 26.6428C20.3534 26.6428 24.0898 22.5136 24.0898 17.5486C24.0898 12.4854 20.3534 8.35612 15.5355 8.35612H8.45606V26.6423H15.5355V26.6428Z" fill="white"/>
<path d="M30.0803 0H39.3231L49.1558 24.0378L58.9884 0H68.2313L53.7772 34.9995H44.5343L30.0803 0Z" fill="white"/>
<path d="M96.2706 34.9995H87.0278L77.1951 10.9616L67.3625 34.9995H58.1196L72.5737 0H81.8166L96.2706 34.9995Z" fill="white"/>
<path d="M168.461 7.05523H153.034V9.56633H159.492V24.9151H162.003V9.56633H168.461V7.05523Z" fill="white"/>
<path d="M188.791 22.404V7.05523H186.28V24.9151H199.5V22.404H188.791Z" fill="white"/>
<path d="M136.451 25.3899C131.308 25.3899 127.123 21.2062 127.123 16.0631C127.123 10.9201 131.307 6.73635 136.451 6.73635C138.613 6.73635 140.72 7.49281 142.385 8.86652L140.862 10.7113C139.625 9.69043 138.058 9.12821 136.451 9.12821C132.626 9.12821 129.514 12.2393 129.514 16.0631C129.514 19.887 132.626 22.9981 136.451 22.9981C139.868 22.9981 142.715 20.515 143.284 17.2588H140.636V14.8675H145.778V16.0631C145.778 21.2057 141.594 25.3899 136.451 25.3899Z" fill="white"/>
<path d="M124.133 7.05523H121.622V24.9146H124.133V7.05523Z" fill="white"/>
<path d="M150.602 7.05523H148.091V24.9146H150.602V7.05523Z" fill="white"/>
<path d="M109.896 6.97591H103.364V24.995H109.896C114.872 24.995 118.907 20.9612 118.907 15.9854C118.907 11.0091 114.872 6.97591 109.896 6.97591ZM116.719 15.9849C116.719 19.5595 113.82 22.4569 110.246 22.4569H105.553V9.51291H110.246C113.82 9.51291 116.719 12.4109 116.719 15.9849Z" fill="white"/>
<path d="M176.623 6.58959H174.42L166.669 24.9146H169.266L170.428 22.1677H180.615L181.777 24.9146H184.374L176.623 6.58959ZM171.44 19.7764L175.522 10.1253L179.604 19.7764H171.44Z" fill="white"/>
</svg>
