<svg width="55" height="37" viewBox="0 0 55 37" fill="none" xmlns="http://www.w3.org/2000/svg">
<path d="M51.7218 5.07452e-06H3.27818C2.84747 -0.000740929 2.42084 0.0807725 2.02277 0.23987C1.62469 0.398968 1.263 0.632519 0.958441 0.92713C0.653881 1.22174 0.412442 1.57162 0.247971 1.95669C0.0835002 2.34176 -0.000765952 2.75445 5.2459e-06 3.17109V33.8289C-0.000765952 34.2455 0.0835002 34.6582 0.247971 35.0433C0.412442 35.4284 0.653881 35.7783 0.958441 36.0729C1.263 36.3675 1.62469 36.601 2.02277 36.7601C2.42084 36.9192 2.84747 37.0007 3.27818 37H51.7218C52.1525 37.0007 52.5792 36.9192 52.9772 36.7601C53.3753 36.601 53.737 36.3675 54.0416 36.0729C54.3461 35.7783 54.5876 35.4284 54.752 35.0433C54.9165 34.6582 55.0008 34.2455 55 33.8289V3.17109C55.0008 2.75445 54.9165 2.34176 54.752 1.95669C54.5876 1.57162 54.3461 1.22174 54.0416 0.92713C53.737 0.632519 53.3753 0.398968 52.9772 0.23987C52.5792 0.0807725 52.1525 -0.000740929 51.7218 5.07452e-06ZM18.0436 5.37229L19.5656 5.25904L20.151 3.9C20.1784 3.848 20.2204 3.80449 20.2721 3.77446C20.3239 3.74442 20.3833 3.72906 20.4436 3.73012C20.504 3.72906 20.5634 3.74442 20.6152 3.77446C20.6669 3.80449 20.7089 3.848 20.7363 3.9L21.3217 5.25904L22.8437 5.37229C22.9084 5.38292 22.9692 5.40928 23.0204 5.44891C23.0716 5.48854 23.1115 5.54012 23.1364 5.5988C23.195 5.71205 23.1364 5.8253 23.0194 5.93856L21.8486 6.90121L22.1998 8.31687C22.2583 8.43012 22.1998 8.54338 22.0827 8.65663C22.0286 8.68439 21.9683 8.69891 21.9071 8.69891C21.8459 8.69891 21.7856 8.68439 21.7315 8.65663L20.4436 7.86386L19.1558 8.65663C19.0972 8.65663 19.0387 8.71325 18.9802 8.71325C18.9366 8.71309 18.8936 8.7037 18.8542 8.68575C18.8148 8.6678 18.7799 8.64172 18.752 8.60934C18.7241 8.57697 18.7039 8.53908 18.6927 8.49834C18.6816 8.45759 18.6798 8.41498 18.6875 8.3735L19.0387 6.95783L17.8679 5.99518C17.7509 5.93856 17.7509 5.76868 17.7509 5.65543C17.8094 5.42892 17.9265 5.37229 18.0436 5.37229ZM18.0436 11.8843L19.5656 11.7711L20.151 10.4121C20.1784 10.36 20.2204 10.3165 20.2721 10.2865C20.3239 10.2565 20.3833 10.2411 20.4436 10.2422C20.504 10.2411 20.5634 10.2565 20.6152 10.2865C20.6669 10.3165 20.7089 10.36 20.7363 10.4121L21.3217 11.7711L22.8437 11.8843C22.9084 11.895 22.9692 11.9213 23.0204 11.961C23.0716 12.0006 23.1115 12.0522 23.1364 12.1108C23.195 12.2241 23.1364 12.3374 23.0194 12.4506L21.8486 13.4133L22.1998 14.8289C22.2583 14.9422 22.1998 15.0554 22.0827 15.1687C22.0286 15.1964 21.9683 15.211 21.9071 15.211C21.8459 15.211 21.7856 15.1964 21.7315 15.1687L20.4436 14.3759L19.1558 15.1687H18.9802C18.9484 15.1724 18.9162 15.1692 18.8858 15.1594C18.8554 15.1496 18.8277 15.1335 18.8046 15.1121C18.7428 15.0817 18.6958 15.029 18.6739 14.9654C18.652 14.9018 18.6569 14.8324 18.6875 14.7723L19.0387 13.3566L17.8679 12.394C17.7509 12.3373 17.7509 12.1675 17.7509 12.0542C17.7783 12.0022 17.8203 11.9587 17.872 11.9287C17.9238 11.8986 17.9832 11.8833 18.0436 11.8843ZM11.0189 5.37229L12.5409 5.25904L13.1263 3.9C13.1537 3.848 13.1957 3.80449 13.2474 3.77446C13.2992 3.74442 13.3586 3.72906 13.419 3.73012C13.4793 3.72906 13.5388 3.74442 13.5905 3.77446C13.6423 3.80449 13.6843 3.848 13.7117 3.9L14.2971 5.25904L15.8191 5.37229C15.8837 5.38292 15.9445 5.40928 15.9957 5.44891C16.0469 5.48854 16.0869 5.54012 16.1118 5.5988C16.1703 5.71205 16.1118 5.8253 15.9947 5.93856L14.8239 6.90121L15.1751 8.31687C15.2337 8.43012 15.1751 8.54338 15.0581 8.65663C15.0074 8.69339 14.9458 8.71325 14.8825 8.71325C14.8191 8.71325 14.7575 8.69339 14.7068 8.65663L13.419 7.86386L12.1311 8.65663C12.0772 8.68488 12.0168 8.69967 11.9555 8.69967C11.8942 8.69967 11.8338 8.68488 11.7799 8.65663C11.7524 8.64616 11.7275 8.63037 11.7065 8.61023C11.6856 8.59009 11.6691 8.56602 11.6582 8.53951C11.6472 8.51299 11.642 8.48459 11.6428 8.45604C11.6436 8.42749 11.6504 8.3994 11.6628 8.3735L12.014 6.95783L10.8433 5.99518C10.7262 5.93856 10.7262 5.76868 10.7262 5.65543C10.7847 5.42892 10.9018 5.37229 11.0189 5.37229ZM11.0189 11.8843L12.5409 11.7711L13.1263 10.4121C13.1537 10.36 13.1957 10.3165 13.2474 10.2865C13.2992 10.2565 13.3586 10.2411 13.419 10.2422C13.4793 10.2411 13.5388 10.2565 13.5905 10.2865C13.6423 10.3165 13.6843 10.36 13.7117 10.4121L14.2971 11.7711L15.8191 11.8843C15.8837 11.895 15.9445 11.9213 15.9957 11.961C16.0469 12.0006 16.0869 12.0522 16.1118 12.1108C16.1703 12.2241 16.1118 12.3374 15.9947 12.4506L14.8239 13.4133L15.1751 14.8289C15.1832 14.8904 15.1769 14.9529 15.1566 15.0117C15.1364 15.0705 15.1027 15.1242 15.0581 15.1687C15.004 15.1964 14.9437 15.211 14.8825 15.211C14.8212 15.211 14.7609 15.1964 14.7068 15.1687L13.419 14.3759L12.1311 15.1687C12.0726 15.1687 12.014 15.2253 11.9555 15.2253C11.9237 15.229 11.8915 15.2258 11.8611 15.2161C11.8308 15.2063 11.803 15.1901 11.7799 15.1687C11.7181 15.1383 11.6712 15.0856 11.6492 15.022C11.6273 14.9584 11.6322 14.8891 11.6628 14.8289L12.014 13.4133L10.8433 12.4506C10.7262 12.394 10.7262 12.2241 10.7262 12.1108C10.7409 12.0464 10.778 11.9888 10.8312 11.9476C10.8845 11.9064 10.9507 11.8841 11.0189 11.8843ZM4.05276 5.37229L5.57477 5.25904L6.16016 3.9C6.18758 3.848 6.22957 3.80449 6.28132 3.77446C6.33307 3.74442 6.39251 3.72906 6.45285 3.73012C6.5132 3.72906 6.57264 3.74442 6.62439 3.77446C6.67614 3.80449 6.71813 3.848 6.74555 3.9L7.33094 5.25904L8.85295 5.37229C8.9176 5.38292 8.97839 5.40928 9.0296 5.44891C9.0808 5.48854 9.12074 5.54012 9.14564 5.5988C9.20418 5.71205 9.14564 5.8253 9.02857 5.93856L7.85779 6.90121L8.20902 8.31687C8.20902 8.43012 8.20902 8.54338 8.09194 8.6C8.03786 8.62777 7.97756 8.64228 7.91633 8.64228C7.8551 8.64228 7.7948 8.62777 7.74071 8.6L6.45285 7.80723L5.165 8.6C5.10646 8.6 5.04792 8.65663 4.98938 8.65663C4.9576 8.66033 4.92537 8.65717 4.89501 8.64738C4.86464 8.63759 4.8369 8.62141 4.81377 8.6C4.69669 8.54338 4.69669 8.43012 4.69669 8.31687L5.04792 6.90121L3.87714 5.93856C3.76007 5.88193 3.76007 5.71205 3.76007 5.5988C3.76007 5.48555 3.87714 5.37229 4.05276 5.37229ZM4.05276 11.8843L5.57477 11.7711L6.16016 10.4121C6.1889 10.3613 6.23124 10.3189 6.28274 10.2894C6.33423 10.2598 6.39299 10.2443 6.45285 10.2443C6.51272 10.2443 6.57148 10.2598 6.62297 10.2894C6.67447 10.3189 6.71681 10.3613 6.74555 10.4121L7.33094 11.7711L8.85295 11.8843C8.9176 11.895 8.97839 11.9213 9.0296 11.961C9.0808 12.0006 9.12074 12.0522 9.14564 12.1108C9.20418 12.2241 9.14564 12.3374 9.02857 12.4506L7.85779 13.4133L8.20902 14.8289C8.21709 14.8904 8.21076 14.9529 8.19049 15.0117C8.17023 15.0705 8.13655 15.1242 8.09194 15.1687C8.03786 15.1964 7.97756 15.211 7.91633 15.211C7.8551 15.211 7.7948 15.1964 7.74071 15.1687L6.45285 14.3759L5.165 15.1687C5.10646 15.1687 5.04792 15.2253 4.98938 15.2253C4.9576 15.229 4.92537 15.2258 4.89501 15.2161C4.86464 15.2063 4.8369 15.1901 4.81377 15.1687C4.75197 15.1383 4.70503 15.0856 4.68312 15.022C4.6612 14.9584 4.66608 14.8891 4.69669 14.8289L5.04792 13.4133L3.87714 12.4506C3.76007 12.394 3.76007 12.2241 3.76007 12.1108C3.76007 11.9976 3.87714 11.8843 4.05276 11.8843ZM3.46737 33.6663V28.4193H51.5912V33.6663H3.46737ZM3.46737 25.2855V20.0386H51.5912V25.2855H3.46737ZM51.5326 16.9614H25.6439V11.7145H51.5326V16.9614ZM51.5326 8.58073H25.6439V3.33374H51.5326V8.58073Z" fill="#333333"/>
</svg>
