<svg width="80" height="80" viewBox="0 0 80 80" fill="none" xmlns="http://www.w3.org/2000/svg">
<path d="M69.6054 26.2761C66.8513 26.2804 64.2112 27.3836 62.2637 29.3439C60.3163 31.3043 59.2204 33.9618 59.216 36.7341C59.216 36.8406 59.216 36.9472 59.216 37.0537L42.5328 41.3484C41.9976 40.2801 41.1771 39.3832 40.1634 38.7585L46.8318 14.7526H47.0924C48.8757 14.7574 50.5996 14.1075 51.9409 12.9246C53.2823 11.7417 54.1491 10.1069 54.3789 8.3268C54.6087 6.54666 54.1857 4.74326 53.1892 3.25456C52.1927 1.76585 50.6911 0.694014 48.9658 0.239917C47.2404 -0.214181 45.4098 -0.0193708 43.8169 0.787829C42.2241 1.59503 40.9783 2.95922 40.313 4.62476C39.6478 6.2903 39.6088 8.14287 40.2033 9.8353C40.7978 11.5277 41.985 12.9439 43.5424 13.8183L36.874 37.8159C35.2273 37.8149 33.6447 38.4586 32.4609 39.6108L16.1766 30.2265C16.8314 28.267 16.7417 26.1328 15.9247 24.2361C15.1078 22.3393 13.6216 20.8145 11.7532 19.9561C9.88481 19.0978 7.76673 18.9667 5.80797 19.5883C3.84921 20.2099 2.18869 21.5401 1.14716 23.3219C0.105629 25.1037 -0.243066 27.2107 0.168402 29.2362C0.57987 31.2616 1.72231 33.0618 3.37512 34.289C5.02792 35.5162 7.07387 36.0834 9.1178 35.881C11.1617 35.6787 13.0587 34.7212 14.4424 33.1934L30.7266 42.5778C30.4831 43.5031 30.4489 44.4716 30.6265 45.412C30.804 46.3524 31.1888 47.2408 31.7526 48.0117L21.0701 61.7726C18.9473 60.6467 16.4828 60.3612 14.1614 60.9721C11.84 61.583 9.82965 63.0462 8.52588 65.0738C7.22211 67.1014 6.71927 69.5467 7.11621 71.9287C7.51315 74.3107 8.78116 76.457 10.6708 77.9454C12.5605 79.4338 14.9351 80.1566 17.3275 79.9716C19.7199 79.7866 21.9569 78.7072 23.5985 76.9457C25.2402 75.1842 26.1676 72.8681 26.1985 70.453C26.2293 68.038 25.3613 65.6987 23.7651 63.8953L34.4476 50.1344C35.3488 50.5086 36.3235 50.6693 37.2962 50.6039C38.269 50.5385 39.2137 50.2489 40.0576 49.7574L56.9118 66.3295C55.9272 67.9453 55.5682 69.8693 55.9033 71.7346C56.2384 73.5998 57.2442 75.2754 58.7286 76.4417C60.213 77.608 62.0721 78.1831 63.951 78.0574C65.8298 77.9317 67.5969 77.1139 68.9149 75.7602C70.2329 74.4064 71.0095 72.6115 71.0964 70.718C71.1833 68.8246 70.5744 66.9652 69.3861 65.4949C68.1977 64.0245 66.5131 63.0462 64.6537 62.7466C62.7943 62.4471 60.8905 62.8472 59.3056 63.8708L42.4432 47.2904C42.8847 46.4944 43.1461 45.61 43.2086 44.7005L59.8918 40.4141C60.5618 42.1989 61.704 43.7652 63.1949 44.9435C64.6858 46.1217 66.4685 46.8669 68.35 47.0984C70.2315 47.3299 72.14 47.0389 73.869 46.2568C75.5979 45.4748 77.0814 44.2315 78.1587 42.6617C79.236 41.0918 79.8662 39.2552 79.9809 37.3507C80.0957 35.4462 79.6906 33.5464 78.8096 31.857C77.9286 30.1676 76.6053 28.753 74.9829 27.7664C73.3605 26.7798 71.5009 26.2587 69.6054 26.2597V26.2761ZM43.233 7.4255C43.2315 6.68407 43.4399 5.95754 43.8338 5.33105C44.2277 4.70456 44.7908 4.20404 45.4571 3.88811C46.1235 3.57217 46.8655 3.4539 47.5962 3.54717C48.3269 3.64044 49.0161 3.94138 49.583 4.41474C50.1499 4.88809 50.5711 5.51427 50.7972 6.2199C51.0233 6.92553 51.045 7.68139 50.8597 8.39896C50.6744 9.11654 50.2897 9.76612 49.7509 10.2716C49.212 10.777 48.5412 11.1175 47.817 11.253C47.5805 11.2955 47.3408 11.3174 47.1005 11.3186C46.7479 11.3196 46.397 11.2699 46.0583 11.171C45.4907 11.0178 44.9646 10.7376 44.5194 10.3514C44.1105 9.98397 43.7842 9.53287 43.5623 9.02829C43.3405 8.5237 43.2282 7.97727 43.233 7.4255ZM13.1071 28.4316C12.903 29.5986 12.2871 30.6522 11.3728 31.3985C10.5114 32.1019 9.43792 32.4893 8.32878 32.497C7.21965 32.5047 6.14094 32.1322 5.27001 31.4409C4.39909 30.7495 3.7878 29.7804 3.53668 28.693C3.28555 27.6055 3.40952 26.4643 3.88822 25.4572C4.36693 24.45 5.17186 23.6369 6.17065 23.1513C7.16944 22.6658 8.30262 22.5369 9.38387 22.7857C10.4651 23.0345 11.4301 23.6463 12.1201 24.5205C12.81 25.3947 13.184 26.4792 13.1803 27.5956C13.1809 27.8759 13.1564 28.1557 13.1071 28.4316ZM16.6 76.5662C14.9988 76.5077 13.4825 75.8263 12.3702 74.6653C11.258 73.5043 10.6365 71.9543 10.6365 70.3414C10.6365 68.7285 11.258 67.1785 12.3702 66.0175C13.4825 64.8565 14.9988 64.1751 16.6 64.1166C17.3932 64.116 18.1789 64.2719 18.9124 64.5756C19.451 64.7906 19.9556 65.0832 20.4106 65.4444C20.8616 65.8055 21.264 66.2243 21.6075 66.6901C22.263 67.6195 22.6527 68.712 22.7341 69.8488C22.8155 70.9856 22.5854 72.1231 22.069 73.1374C21.5525 74.1517 20.7696 75.0039 19.8053 75.6013C18.841 76.1987 17.7323 76.5182 16.6 76.5252V76.5662ZM39.7726 44.6841C39.734 44.9507 39.6572 45.2102 39.5446 45.4545C39.4022 45.7583 39.2095 46.0355 38.9746 46.2741C38.533 46.7158 37.9622 47.0031 37.3462 47.0937C37.1771 47.1263 37.0054 47.1428 36.8332 47.1429H36.7111C36.098 47.1201 35.5079 46.902 35.0257 46.52C34.5408 46.1412 34.1851 45.6199 34.0079 45.0283C33.9555 44.8435 33.9201 44.6542 33.9021 44.4628C33.9021 44.3727 33.9021 44.2825 33.9021 44.1924C33.8995 43.667 34.0404 43.151 34.3092 42.7007C34.6179 42.1662 35.0847 41.7421 35.6445 41.4877L35.8318 41.414C36.1553 41.2951 36.497 41.2341 36.8414 41.2336C37.1169 41.2321 37.3911 41.2707 37.6556 41.3484C38.109 41.4767 38.525 41.7128 38.8688 42.0368C38.9701 42.1317 39.0653 42.233 39.1538 42.3401C39.4496 42.7129 39.6533 43.1511 39.7481 43.6186C39.7836 43.8078 39.8027 43.9998 39.8052 44.1924C39.8091 44.3569 39.7983 44.5215 39.7726 44.6841ZM59.4847 68.8703C59.6906 68.3159 60.0091 67.8109 60.4199 67.3875C60.8307 66.9642 61.3246 66.6317 61.8703 66.4115C62.3645 66.2105 62.8926 66.1075 63.4255 66.1082C64.2581 66.1082 65.072 66.3567 65.7642 66.8223C66.4564 67.2879 66.9959 67.9497 67.3146 68.724C67.6332 69.4982 67.7166 70.3502 67.5541 71.1722C67.3917 71.9941 66.9908 72.7491 66.4021 73.3417C65.8134 73.9343 65.0633 74.3379 64.2467 74.5014C63.4302 74.6649 62.5838 74.581 61.8146 74.2603C61.0454 73.9396 60.388 73.3964 59.9254 72.6996C59.4629 72.0028 59.216 71.1836 59.216 70.3455C59.2163 69.8415 59.3073 69.3416 59.4847 68.8703ZM69.6054 43.7498C67.992 43.755 66.4273 43.194 65.1805 42.1633C63.9337 41.1327 63.0828 39.6968 62.7742 38.1028C62.6826 37.6524 62.6362 37.1938 62.6357 36.7341C62.6357 36.6111 62.6357 36.4964 62.6357 36.3734C62.7042 35.0007 63.1714 33.6783 63.9793 32.5702C64.7872 31.4621 65.9003 30.6169 67.1807 30.1394C68.4612 29.6619 69.8527 29.5731 71.1828 29.8839C72.5129 30.1948 73.7232 30.8917 74.6637 31.8882C75.6041 32.8847 76.2335 34.1371 76.4737 35.4902C76.714 36.8432 76.5545 38.2375 76.0152 39.5002C75.4758 40.763 74.5803 41.8387 73.4395 42.594C72.2986 43.3494 70.9628 43.7512 69.5973 43.7498H69.6054Z" fill="white"/>
</svg>
