<svg width="183" height="64" viewBox="0 0 183 64" fill="none" xmlns="http://www.w3.org/2000/svg">
<path d="M0 0H28.7853C47.101 0 61.9723 14.3816 61.9723 32.0857C61.9566 40.5452 58.4551 48.654 52.2347 54.6358C46.0144 60.6177 37.5822 63.9849 28.7853 64H0V0ZM29.5329 48.7114C38.689 48.7114 45.791 41.1594 45.791 32.0823C45.791 22.8271 38.689 15.2853 29.5329 15.2853H16.073V48.7181L29.5329 48.7114Z" fill="white"/>
<path d="M57.1794 0H74.7476L93.4406 43.9477L112.13 0H129.702L102.226 63.9899H84.6547L57.1794 0Z" fill="white"/>
<path d="M183 63.9899H165.432L146.739 20.0422L128.049 63.9899H110.478L137.957 0H155.525L183 63.9899Z" fill="white"/>
</svg>
