<svg width="89" height="13" viewBox="0 0 89 13" fill="none" xmlns="http://www.w3.org/2000/svg">
<path d="M15.3733 0L15.339 0.100488C15.2532 0.348866 14.7667 1.74812 13.8738 4.26034C12.6375 7.75848 11.8915 9.87444 11.5844 10.7276C11.4127 10.2062 11.012 9.00037 10.289 6.83892C8.34106 1.00678 8.07206 0.202876 8.04535 0.11566L8.0339 0H7.742V11.998C7.74174 12.0197 7.74586 12.0413 7.75411 12.0614C7.76236 12.0815 7.77458 12.0998 7.79005 12.1152C7.80551 12.1305 7.82391 12.1427 7.84416 12.1509C7.86442 12.1591 7.88612 12.1632 7.90798 12.1629H8.38876C8.41063 12.1632 8.43232 12.1591 8.45258 12.1509C8.47283 12.1427 8.49123 12.1305 8.50669 12.1152C8.52216 12.0998 8.53438 12.0815 8.54263 12.0614C8.55088 12.0413 8.555 12.0197 8.55474 11.998V4.1864C8.76842 4.82725 8.93631 5.34486 9.08321 5.76388L11.4394 12.8189L11.4909 12.9194H11.7485V12.7924C11.7923 12.6616 12.0785 11.8444 12.5765 10.4451C13.704 7.26362 14.4366 5.19508 14.8105 4.13141V12.1629H15.4726C15.4944 12.1629 15.5159 12.1587 15.5361 12.1504C15.5562 12.1421 15.5745 12.1299 15.5899 12.1146C15.6053 12.0993 15.6176 12.0811 15.6259 12.0611C15.6342 12.0411 15.6385 12.0196 15.6385 11.998V0.147889L15.6214 0H15.3733Z" fill="#828282"/>
<path d="M23.3176 5.76199H18.5003V1.65522H23.3099C23.3318 1.65548 23.3535 1.65138 23.3738 1.64318C23.394 1.63498 23.4124 1.62284 23.4279 1.60747C23.4433 1.59211 23.4556 1.57382 23.4638 1.55369C23.4721 1.53356 23.4762 1.512 23.4759 1.49027V0.965069C23.4762 0.943337 23.4721 0.921775 23.4638 0.901647C23.4556 0.881519 23.4433 0.863233 23.4279 0.847865C23.4124 0.832496 23.394 0.820358 23.3738 0.812158C23.3535 0.803959 23.3318 0.799863 23.3099 0.800117H17.8058C17.784 0.799863 17.7623 0.803959 17.742 0.812158C17.7218 0.820358 17.7034 0.832496 17.6879 0.847865C17.6724 0.863233 17.6602 0.881519 17.652 0.901647C17.6437 0.921775 17.6396 0.943337 17.6399 0.965069V11.9847C17.6396 12.0064 17.6437 12.028 17.652 12.0481C17.6602 12.0682 17.6724 12.0865 17.6879 12.1019C17.7034 12.1173 17.7218 12.1294 17.742 12.1376C17.7623 12.1458 17.784 12.1499 17.8058 12.1497H23.3099C23.3318 12.1499 23.3535 12.1458 23.3738 12.1376C23.394 12.1294 23.4124 12.1173 23.4279 12.1019C23.4433 12.0865 23.4556 12.0682 23.4638 12.0481C23.4721 12.028 23.4762 12.0064 23.4759 11.9847V11.4595C23.4762 11.4378 23.4721 11.4162 23.4638 11.3961C23.4556 11.376 23.4433 11.3577 23.4279 11.3423C23.4124 11.3269 23.394 11.3148 23.3738 11.3066C23.3535 11.2984 23.3318 11.2943 23.3099 11.2945H18.5003V6.62467C20.7496 6.62467 22.2778 6.62467 23.3099 6.62467C23.3324 6.62569 23.3548 6.62219 23.3758 6.61436C23.3968 6.60653 23.416 6.59454 23.4323 6.57912C23.4485 6.5637 23.4614 6.54517 23.4702 6.52464C23.4791 6.50412 23.4836 6.48203 23.4836 6.45972V5.93452C23.4849 5.91217 23.4815 5.88978 23.4738 5.86876C23.466 5.84774 23.4539 5.82854 23.4384 5.81235C23.4228 5.79616 23.404 5.78333 23.3832 5.77467C23.3625 5.766 23.3401 5.76169 23.3176 5.76199Z" fill="#828282"/>
<path d="M2.92662 0.127035L2.77209 0.680668C2.74538 0.777364 2.5813 1.42201 2.26651 2.71319C1.82962 4.50872 1.07221 7.61818 0.011448 11.9563L0 12.0776L0.135458 12.1459H0.757411L0.852803 12.1004L0.868066 12.0321C0.995891 11.4974 1.08938 11.122 1.14661 10.9116L2.90754 3.70671C3.28911 5.2804 3.51424 6.18859 3.55048 6.33269C3.67259 6.83703 4.08277 8.50362 4.80584 11.4254C4.95084 12.0985 4.96419 12.1534 5.10919 12.1534H5.70253L5.83416 12.089L2.93425 0.16306L2.92662 0.127035Z" fill="#828282"/>
<path d="M40.9441 3.6157H41.4916C41.5135 3.61595 41.5352 3.61186 41.5554 3.60366C41.5757 3.59546 41.5941 3.58332 41.6096 3.56795C41.625 3.55258 41.6372 3.5343 41.6455 3.51417C41.6538 3.49404 41.6579 3.47248 41.6576 3.45075V2.77956C41.6578 2.75391 41.6519 2.72858 41.6404 2.70562C41.6293 2.47515 41.579 2.24821 41.4916 2.03443C41.3326 1.66114 41.0623 1.34526 40.717 1.12932C40.3718 0.913383 39.9684 0.807756 39.5609 0.826666H37.7485C37.3666 0.829736 36.9944 0.946642 36.6801 1.16226C36.4194 1.33646 36.206 1.57195 36.0589 1.8478C35.9118 2.12365 35.8355 2.43134 35.8368 2.74353V5.00168C35.8404 5.28167 35.9042 5.55766 36.024 5.81111C36.1437 6.06455 36.3167 6.28958 36.5313 6.47109C36.8762 6.75087 37.3052 6.90833 37.7504 6.91856C37.7815 6.91659 37.8127 6.91659 37.8438 6.91856H39.6334C39.8356 6.91237 40.036 6.95807 40.2153 7.05127C40.3936 7.14954 40.5407 7.29531 40.6401 7.47218C40.7396 7.64904 40.7873 7.84998 40.7781 8.05237V10.248L40.7934 10.2707C40.7871 10.4857 40.7145 10.6935 40.5854 10.866C40.4908 10.9996 40.3658 11.109 40.2206 11.1854C40.0754 11.2619 39.9141 11.3032 39.7498 11.3059H37.7351C37.4601 11.2982 37.1986 11.186 37.0044 10.9923C36.8102 10.7987 36.6982 10.5383 36.6915 10.265V9.53695C36.6907 9.50551 36.6809 9.47495 36.6634 9.44878C36.6458 9.42261 36.6212 9.40191 36.5923 9.38906L36.5637 9.37389H35.9913C35.9695 9.37363 35.9478 9.37773 35.9275 9.38593C35.9073 9.39413 35.8889 9.40627 35.8734 9.42164C35.8579 9.437 35.8457 9.45529 35.8375 9.47542C35.8292 9.49555 35.8251 9.51711 35.8254 9.53884V10.2366C35.8291 10.6383 35.9563 11.0292 36.1898 11.3571C36.3666 11.6028 36.5996 11.8032 36.8696 11.942C37.1395 12.0807 37.4388 12.1539 37.7427 12.1553H39.7269C40.2342 12.1469 40.718 11.9413 41.0746 11.5827C41.4312 11.224 41.6323 10.7408 41.6347 10.2366V8.01445C41.6348 7.99003 41.6289 7.96597 41.6175 7.9443C41.6077 7.77431 41.5796 7.60586 41.5336 7.44185C41.4888 7.29146 41.4247 7.14744 41.3428 7.01336C41.2061 6.7714 41.0139 6.56484 40.7819 6.41042C40.4133 6.16211 39.9732 6.04028 39.5285 6.06345H37.7046L37.5348 6.03691C37.3599 6.00154 37.1973 5.92112 37.0635 5.8037C36.95 5.71097 36.8573 5.59552 36.7915 5.46486C36.7258 5.33419 36.6885 5.19124 36.682 5.04529V2.71699C36.6847 2.4994 36.7568 2.28829 36.888 2.11406C36.9832 1.98085 37.1087 1.87178 37.2542 1.79569C37.3997 1.7196 37.5612 1.67863 37.7256 1.67608H39.6334C39.8015 1.6709 39.9688 1.70195 40.1237 1.76709C40.325 1.85545 40.4946 2.00244 40.6101 2.18863C40.7256 2.37482 40.7815 2.59145 40.7705 2.80989V3.45075C40.7702 3.47314 40.7745 3.49536 40.7832 3.51601C40.792 3.53666 40.8049 3.5553 40.8211 3.57078C40.8374 3.58626 40.8568 3.59823 40.8779 3.60596C40.8991 3.61369 40.9216 3.617 40.9441 3.6157Z" fill="#828282"/>
<path d="M33.7973 0.851312H33.2784C33.1867 0.851312 33.1124 0.925164 33.1124 1.01626V11.9828C33.1124 12.0739 33.1867 12.1478 33.2784 12.1478H33.7973C33.889 12.1478 33.9633 12.0739 33.9633 11.9828V1.01626C33.9633 0.925164 33.889 0.851312 33.7973 0.851312Z" fill="#828282"/>
<path d="M29.2815 0.819078H25.5421C25.5202 0.818824 25.4986 0.82292 25.4783 0.831119C25.458 0.839319 25.4396 0.851458 25.4242 0.866826C25.4087 0.882194 25.3965 0.900481 25.3882 0.920608C25.38 0.940736 25.3759 0.962298 25.3761 0.984031V11.9809C25.3759 12.0026 25.38 12.0242 25.3882 12.0443C25.3965 12.0645 25.4087 12.0827 25.4242 12.0981C25.4396 12.1135 25.458 12.1256 25.4783 12.1338C25.4986 12.142 25.5202 12.1461 25.5421 12.1459H26.0687C26.0905 12.1461 26.1122 12.142 26.1325 12.1338C26.1528 12.1256 26.1712 12.1135 26.1866 12.0981C26.2021 12.0827 26.2143 12.0645 26.2225 12.0443C26.2308 12.0242 26.2349 12.0026 26.2347 11.9809V1.67607H29.3082C29.5271 1.68328 29.7378 1.76041 29.9092 1.89601C30.0402 1.99051 30.1476 2.11372 30.223 2.25608C30.2984 2.39844 30.3399 2.55615 30.3441 2.71699V5.00548C30.3414 5.14618 30.3101 5.28488 30.252 5.41325C30.194 5.54162 30.1105 5.65701 30.0065 5.7525C29.8167 5.93953 29.5637 6.0497 29.2967 6.06155L29.2777 6.05207H29.2338C29.1785 6.05207 29.1308 6.05207 29.0926 6.05207H26.3987L29.3368 10.6196C30.2487 12.0567 30.2774 12.0776 30.3079 12.1023L30.3499 12.1345H31.0462L31.195 12.1193V11.9297L27.946 6.90338H29.2586C29.6697 6.89333 30.0683 6.76127 30.4033 6.52418C30.65 6.34672 30.8517 6.11443 30.9921 5.84582C31.1326 5.57721 31.2079 5.27971 31.2122 4.97703V2.76249C31.2071 2.37269 31.0885 1.99271 30.8707 1.66849C30.6954 1.40899 30.4591 1.19596 30.1821 1.04792C29.9051 0.899886 29.596 0.821328 29.2815 0.819078Z" fill="#828282"/>
<path d="M83.1511 0.835874V11.8481C83.7501 11.8481 84.2074 11.8481 84.5228 11.8481H88.6685C88.6685 11.8481 88.6685 11.8481 88.6685 11.8329V11.3058C88.6685 11.2963 88.6685 11.2907 88.6685 11.2907H83.7082V0.835874C83.7085 0.833808 83.7083 0.831694 83.7077 0.829706C83.707 0.827717 83.7059 0.825913 83.7044 0.824434C83.7029 0.822956 83.7011 0.821847 83.6991 0.8212C83.6971 0.820552 83.695 0.820384 83.6929 0.820708H83.1663C83.1549 0.820708 83.1511 0.820705 83.1511 0.835874ZM78.4921 0.574219C78.4654 0.667757 78.2975 1.34275 77.9885 2.5992C77.5484 4.40929 76.7961 7.49036 75.7315 11.8424H76.3058C76.4355 11.3001 76.5271 10.9266 76.5843 10.72L78.4921 2.91773C78.9767 4.90605 79.24 5.98048 79.282 6.14101C79.4092 6.65673 79.8276 8.35559 80.5373 11.2376C80.5688 11.4458 80.6212 11.6503 80.6938 11.8481H81.2509L80.5221 8.84666L78.4921 0.574219ZM68.3806 0.860523V1.36297C68.3806 1.37245 68.3806 1.37815 68.3959 1.37815H70.8722V11.8348C70.8722 11.8443 70.8722 11.85 70.8875 11.85H71.4064C71.4179 11.85 71.4217 11.85 71.4217 11.8348V1.37815H73.8866C73.8981 1.37815 73.9019 1.37814 73.9019 1.36297V0.860523C73.9019 0.849147 73.9019 0.845357 73.8866 0.845357H68.3921C68.3806 0.845357 68.3768 0.845355 68.3768 0.860523H68.3806ZM65.9729 0.860523V11.8272C65.9726 11.8293 65.9728 11.8314 65.9734 11.8334C65.9741 11.8354 65.9752 11.8372 65.9767 11.8387C65.9782 11.8402 65.98 11.8413 65.982 11.8419C65.984 11.8426 65.9861 11.8427 65.9882 11.8424H66.509C66.5111 11.8427 66.5132 11.8426 66.5152 11.8419C66.5172 11.8413 66.519 11.8402 66.5205 11.8387C66.522 11.8372 66.5231 11.8354 66.5238 11.8334C66.5244 11.8314 66.5246 11.8293 66.5243 11.8272V0.868109C66.5243 0.856733 66.5243 0.852937 66.509 0.852937H65.9882C65.9786 0.852937 65.9729 0.852941 65.9729 0.868109V0.860523ZM62.2679 1.56395C62.5189 1.56981 62.7612 1.65629 62.9585 1.81044C63.1025 1.92005 63.2199 2.06048 63.3018 2.22132C63.3837 2.38216 63.4281 2.55927 63.4317 2.7395V4.98252C63.4272 5.14093 63.3911 5.29688 63.3256 5.44137C63.2601 5.58586 63.1665 5.71603 63.0501 5.82437C62.8272 6.0377 62.5315 6.15958 62.2221 6.16566H59.1142V1.56395H62.2679ZM58.5553 1.02927V11.8367C58.5549 11.8388 58.5551 11.8409 58.5557 11.8429C58.5564 11.8449 58.5575 11.8467 58.559 11.8482C58.5605 11.8496 58.5623 11.8508 58.5643 11.8514C58.5663 11.852 58.5684 11.8522 58.5705 11.8519H59.0894C59.1009 11.8519 59.1066 11.8519 59.1066 11.8367V6.69844H62.2221C62.5896 6.69019 62.946 6.5719 63.2447 6.35905C63.4691 6.19938 63.6527 5.98958 63.7806 5.74655C63.9085 5.50351 63.9772 5.23402 63.9811 4.95977V2.77743C63.9774 2.42546 63.8721 2.08196 63.6778 1.78769C63.5204 1.55259 63.3076 1.35924 63.0579 1.22443C62.8082 1.08962 62.5291 1.01742 62.245 1.0141H58.5781C58.5761 1.01378 58.5739 1.01395 58.5719 1.01459C58.5699 1.01524 58.5681 1.01635 58.5666 1.01783C58.5651 1.01931 58.564 1.02112 58.5634 1.02311C58.5627 1.02509 58.5626 1.02721 58.5629 1.02927H58.5553ZM53.9039 0.574219C53.8798 0.667757 53.7119 1.34275 53.4003 2.5992C52.9653 4.40929 52.2136 7.49036 51.1452 11.8424H51.7195C51.8467 11.3001 51.9395 10.926 51.998 10.72L53.9059 2.91773C54.3917 4.90605 54.6556 5.98048 54.6976 6.14101C54.8248 6.65673 55.2432 8.35559 55.953 11.2376C55.9857 11.4453 56.0374 11.6497 56.1075 11.8481H56.6665L55.9377 8.84666L53.9039 0.574219ZM44.5098 1.15441C44.2683 1.31522 44.0706 1.53281 43.9341 1.78783C43.7977 2.04285 43.7267 2.32742 43.7275 2.61626V10.0791C43.7299 10.4473 43.8458 10.806 44.0595 11.1067C44.2221 11.3349 44.4371 11.5213 44.6865 11.6506C44.936 11.7798 45.2129 11.8482 45.4942 11.85H47.4707C47.8227 11.8476 48.1657 11.7399 48.4552 11.5409C48.6962 11.3798 48.8937 11.1621 49.0301 10.9072C49.1665 10.6522 49.2377 10.3678 49.2374 10.0791V8.56225C49.2374 8.56225 49.2374 8.55278 49.2221 8.54709H48.6956C48.6956 8.54709 48.6841 8.54708 48.6803 8.56225V10.1094C48.6726 10.4222 48.5444 10.72 48.3222 10.9416C48.1 11.1632 47.8006 11.2915 47.486 11.3001H45.4789C45.1641 11.2919 44.8646 11.1638 44.6422 10.9421C44.4199 10.7204 44.2919 10.4223 44.2846 10.1094V2.58403C44.2923 2.27129 44.4205 1.97342 44.6427 1.75186C44.865 1.53031 45.1643 1.40196 45.4789 1.39331H47.3868C47.5789 1.38717 47.77 1.42411 47.9458 1.50139C48.1718 1.60221 48.3621 1.76818 48.492 1.97779C48.622 2.1874 48.6856 2.43098 48.6746 2.67694V4.13878C48.6746 4.15016 48.6746 4.15395 48.6898 4.15395H49.2317C49.2431 4.15395 49.2469 4.15395 49.2469 4.13878V2.6466C49.2469 2.63712 49.2469 2.63143 49.2317 2.63143C49.2293 2.40098 49.1847 2.17288 49.1 1.95833C48.9528 1.61424 48.7032 1.32316 48.3846 1.1242C48.0661 0.925239 47.6939 0.827937 47.3181 0.845357H45.498C45.146 0.847143 44.8028 0.954891 44.5136 1.15441" fill="#939598"/>
</svg>
