<svg width="34" height="13" viewBox="0 0 34 13" fill="none" xmlns="http://www.w3.org/2000/svg">
<path d="M0 0H5.34795C8.751 0 11.5112 2.9212 11.5112 6.51874C11.5112 10.0788 8.75043 13 5.34738 13H0V0ZM5.48669 9.89544C7.18841 9.89544 8.508 8.3624 8.508 6.51874C8.508 4.63821 7.18841 3.10456 5.48669 3.10456H2.98643V9.89544H5.48669Z" fill="#828282"/>
<path d="M10.6235 0H13.8878L17.3604 8.92792L20.833 0H24.0973L18.9925 12.9992H15.7282L10.6235 0Z" fill="#828282"/>
<path d="M34 12.9992H30.7357L27.2631 4.07128L23.7905 12.9992H20.5258L25.6309 0H28.8952L34 12.9992Z" fill="#828282"/>
</svg>
