<svg width="42" height="57" viewBox="0 0 42 57" fill="none" xmlns="http://www.w3.org/2000/svg">
<path d="M9.99975 50.934C11.9553 54.674 15.6819 57 19.7283 57H30.7667L31.7075 56.9878V56.9449C37.3774 56.4369 41.842 51.3992 41.8481 45.278C41.8481 43.8212 41.8481 42.5664 41.842 41.4646C41.842 40.5586 41.8358 39.7629 41.842 39.0406C41.8481 35.0006 41.842 33.3602 41.8358 29.2407V28.4327C41.8297 25.4517 39.4867 23.0338 36.6087 23.0338H36.5411C36.5349 23.0338 36.5226 23.0338 36.5165 23.0338C35.674 23.0338 34.8622 23.2419 34.1305 23.6276C33.1711 22.1218 31.5354 21.1669 29.7581 21.1669C28.7865 21.173 27.8272 21.4668 27.0216 21.9871C26.0438 20.7568 24.5803 20.0222 22.9998 20.0222H22.9322C22.4218 20.0161 21.9052 20.0896 21.4133 20.2426V11.5077C21.4133 8.50838 19.0641 6.07216 16.1739 6.07216C13.2897 6.07216 10.9468 8.50838 10.9406 11.5016L10.9222 29.3141C9.77836 28.1878 8.25943 27.4961 6.64211 27.3737C4.82185 27.2513 2.99545 27.8879 1.6487 29.1182L0.658628 29.9323C0.000629604 30.4832 -0.190005 31.432 0.203564 32.191L9.99975 50.934ZM6.37768 31.028C7.23861 31.0954 8.0442 31.5177 8.59151 32.1972L11.3342 35.5148C11.8262 36.1086 12.644 36.335 13.3758 36.078C14.1076 35.8209 14.5934 35.1292 14.5934 34.3579L14.6119 11.5016C14.6119 10.5406 15.3314 9.72648 16.18 9.72648C17.0286 9.72648 17.7481 10.5406 17.7481 11.5077V25.4333C17.7481 25.4578 17.7481 25.4884 17.7481 25.4945V31.383C17.7481 32.393 18.5722 33.2133 19.5868 33.2133C20.6015 33.2133 21.4256 32.393 21.4256 31.383V25.317C21.4256 24.4172 22.102 23.6827 22.926 23.6827H23.006C23.8731 23.6827 24.5803 24.4662 24.5803 25.4333V30.826C24.5803 31.836 25.4043 32.6562 26.419 32.6562C27.4336 32.6562 28.2577 31.836 28.2577 30.826V26.5963C28.2577 25.6169 28.9403 24.8151 29.7827 24.8151C30.6191 24.8151 31.3017 25.6108 31.3017 26.5963V30.5873C31.3017 31.5973 32.1257 32.4175 33.1404 32.4175C34.1551 32.4175 34.9791 31.5973 34.9791 30.5873V28.4265C34.9791 27.4716 35.6863 26.6943 36.5534 26.6943H36.6272C37.4758 26.6943 38.1707 27.4778 38.1707 28.4449C38.183 33.1704 38.1768 34.7497 38.1707 39.0406L38.1645 45.2903C38.1584 49.7342 34.8254 53.3518 30.7298 53.3518H19.7344C17.0655 53.3518 14.5873 51.7787 13.2651 49.2568L4.1454 31.8115C4.75421 31.2606 5.57209 30.9729 6.37768 31.028Z" fill="#333333"/>
<path d="M7.06643 12.5177C8.0442 12.5177 8.83749 11.7281 8.83749 10.7548C8.85594 6.76385 12.1275 3.51965 16.137 3.51965C20.1465 3.51965 23.418 6.76385 23.4364 10.7487C23.4364 11.722 24.2297 12.5116 25.2075 12.5116C26.1853 12.5116 26.9786 11.722 26.9786 10.7487C26.9601 4.82345 22.0958 0 16.137 0C10.1842 0 5.31996 4.82345 5.29536 10.7548C5.29536 11.7281 6.0948 12.5177 7.06643 12.5177Z" fill="#333333"/>
</svg>
