<svg width="62" height="22" viewBox="0 0 62 22" fill="none" xmlns="http://www.w3.org/2000/svg">
<path d="M0 0H9.74623C15.9476 0 20.9828 4.94368 20.9828 11.0294C20.9775 13.9374 19.7919 16.7248 17.6858 18.7811C15.5797 20.8373 12.7247 21.9948 9.74623 22H0V0ZM9.99935 16.7445C13.0995 16.7445 15.5041 14.1485 15.5041 11.0283C15.5041 7.84683 13.0995 5.25432 9.99935 5.25432H5.44204V16.7468L9.99935 16.7445Z" fill="#333333"/>
<path d="M19.36 0H25.3083L31.6374 15.107L37.9654 0H43.9148L34.6122 21.9965H28.6627L19.36 0Z" fill="#333333"/>
<path d="M61.9608 21.9965H56.0125L49.6833 6.88951L43.3554 21.9965H37.4059L46.7098 0H52.6581L61.9608 21.9965Z" fill="#333333"/>
</svg>
