<svg width="24" height="24" viewBox="0 0 24 24" fill="none" xmlns="http://www.w3.org/2000/svg">
<path d="M10.5 11.7498C12.71 11.7498 14.5 9.95976 14.5 7.74976C14.5 5.53976 12.71 3.74976 10.5 3.74976C8.29 3.74976 6.5 5.53976 6.5 7.74976C6.5 9.95976 8.29 11.7498 10.5 11.7498ZM10.5 5.74976C11.6 5.74976 12.5 6.64976 12.5 7.74976C12.5 8.84976 11.6 9.74976 10.5 9.74976C9.4 9.74976 8.5 8.84976 8.5 7.74976C8.5 6.64976 9.4 5.74976 10.5 5.74976ZM4.5 17.7498C4.7 17.1198 7.07 16.0698 9.46 15.8098L11.5 13.8098C11.11 13.7698 10.82 13.7498 10.5 13.7498C7.83 13.7498 2.5 15.0898 2.5 17.7498V19.7498H11.5L9.5 17.7498H4.5ZM20.1 12.2498L14.97 17.4198L12.9 15.3398L11.5 16.7498L14.97 20.2498L21.5 13.6598L20.1 12.2498Z" fill="white"/>
</svg>
