<?xml version="1.0" encoding="utf-8"?>
<!-- Generator: Adobe Illustrator 23.0.0, SVG Export Plug-In . SVG Version: 6.00 Build 0)  -->
<svg version="1.1" id="Capa_1" xmlns="http://www.w3.org/2000/svg" xmlns:xlink="http://www.w3.org/1999/xlink" x="0px" y="0px"
	 viewBox="0 0 1920 1080" style="enable-background:new 0 0 1920 1080;" xml:space="preserve" width="202" height="100">
<style type="text/css">
	.st0{fill:none;}
	.st1{fill:#ffffff;}
	.st2{fill:#ffffff;}
</style>
<line class="st0" x1="593" y1="-2816" x2="593" y2="-2813"/>
<g>
	<g>
		<path class="st1" d="M444.05,852.72c-13.81,26.74-41.43,44.93-73.86,44.93c-46.03,0-83.29-37.26-83.29-83.51
			c0-45.59,37.26-83.07,83.29-83.07c32.22,0,60.28,18.41,73.86,45.15l-26.3,13.37c-8.77-17.1-26.52-28.93-47.56-28.93
			c-29.59,0-53.7,24.11-53.7,53.48c0,29.81,24.11,54.14,53.7,54.14c21.04,0,38.58-12.05,47.56-29.37L444.05,852.72z"/>
		<path class="st1" d="M576.87,736.33h28.28l68.39,156.06h-32.22l-8.77-19.73h-83.07l-8.33,19.73h-32.22L576.87,736.33z
			 M620.71,844.17l-29.59-70.14l-29.59,70.14H620.71z"/>
		<path class="st1" d="M750.9,736.33h69.48c34.41,0,63.78,26.52,63.78,60.06c0,33.54-29.15,60.06-63.78,60.06h-40.11v35.95H750.9
			V736.33z M820.16,827.73c19.29,0,34.41-14.25,34.41-31.34c0-16.88-15.78-31.12-35.07-31.12h-39.23v62.47H820.16z"/>
		<path class="st1" d="M966.14,736.33h29.37v156.06h-29.37V736.33z"/>
		<path class="st1" d="M1133.15,765.71h-55.23v-29.37h140.06v29.37h-55.23v126.69h-29.59V765.71z"/>
		<path class="st1" d="M1330.2,736.33h28.28l68.39,156.06h-32.22l-8.77-19.73h-83.07l-8.33,19.73h-32.22L1330.2,736.33z
			 M1374.04,844.17l-29.59-70.14l-29.59,70.14H1374.04z"/>
		<path class="st1" d="M1504.23,736.33h29.37v126.91h93.15v29.15h-122.52V736.33z"/>
	</g>
	<g>
		<path class="st2" d="M282,182.21h213.29c135.73,0,245.83,110.8,245.83,247.22c0,135.03-110.1,245.83-245.83,245.83H282V182.21z
			 M500.82,557.53c67.86,0,120.49-58.17,120.49-128.11c0-71.33-52.63-129.5-120.49-129.5h-99.72v257.6H500.82z"/>
		<path class="st2" d="M705.69,182.21h130.19l138.49,338.63l138.5-338.63h130.19l-203.59,493.05H909.28L705.69,182.21z"/>
		<path class="st2" d="M1638,675.26h-130.19l-138.49-338.63l-138.5,338.63h-130.19l203.59-493.05h130.19L1638,675.26z"/>
	</g>
</g>
</svg>
