<svg width="222" height="106" viewBox="0 0 222 106" fill="none" xmlns="http://www.w3.org/2000/svg">
<path d="M207.868 77.3573V105.77H222C222 105.77 222 105.77 222 105.73V104.332H209.293V77.2859H207.947C207.947 77.2859 207.947 77.2859 207.947 77.3256L207.868 77.3573ZM196.017 76.6504C195.945 76.8887 195.517 78.6282 194.725 81.8849C193.6 86.5554 191.675 94.5143 188.95 105.762H190.376C190.709 104.364 190.947 103.379 191.089 102.862L195.977 82.703C197.218 87.8395 197.891 90.6169 197.997 91.0353C198.314 92.3697 199.386 96.7569 201.213 104.197C201.298 104.737 201.431 105.269 201.609 105.786H203.004L201.134 98.0331L196.017 76.6504ZM170.128 77.3891V78.6838H176.505V105.69C176.505 105.69 176.505 105.69 176.545 105.69H177.915V78.6838H184.292V77.3891C184.292 77.3891 184.292 77.3494 184.253 77.3494H170.089C170.089 77.3494 170.049 77.3494 170.049 77.3891H170.128ZM163.902 77.3891V105.722C163.902 105.722 163.902 105.722 163.941 105.722H165.28V77.3971H163.957C163.957 77.3971 163.918 77.3971 163.918 77.4368L163.902 77.3891ZM154.411 79.2319C155.054 79.2496 155.674 79.4753 156.178 79.8753C156.545 80.1561 156.845 80.516 157.054 80.9284C157.264 81.3409 157.379 81.7953 157.39 82.2582V88.0487C157.371 88.8752 157.026 89.6605 156.431 90.233C155.857 90.78 155.1 91.0917 154.308 91.1068H146.347V79.1922L154.411 79.2319ZM144.905 105.77C144.905 105.77 144.905 105.77 144.945 105.77H146.268V92.5047H154.253C155.192 92.4855 156.104 92.1808 156.867 91.631C157.443 91.2181 157.914 90.6751 158.241 90.0458C158.569 89.4165 158.744 88.7188 158.753 88.009V82.3774C158.738 81.4664 158.463 80.5788 157.96 79.8197C157.556 79.2116 157.01 78.7115 156.37 78.3628C155.729 78.014 155.013 77.827 154.285 77.8181H144.905V105.77ZM132.975 76.6425C132.904 76.8808 132.476 78.6203 131.684 81.8769C130.559 86.5475 128.634 94.5064 125.909 105.754H127.335C127.667 104.356 127.905 103.371 128.048 102.855L132.935 82.6951C134.182 87.8316 134.855 90.609 134.955 91.0273C135.272 92.3618 136.344 96.749 138.172 104.189C138.252 104.73 138.384 105.262 138.568 105.778H140.002L132.975 76.6425ZM108.917 78.1358C108.298 78.5518 107.791 79.1146 107.442 79.7741C107.092 80.4337 106.91 81.1697 106.912 81.9167V101.194C106.919 102.147 107.215 103.075 107.76 103.855C108.171 104.448 108.716 104.934 109.351 105.274C109.986 105.614 110.692 105.797 111.412 105.809H116.474C117.375 105.807 118.253 105.53 118.993 105.015C119.611 104.599 120.118 104.036 120.467 103.376C120.817 102.717 120.999 101.981 120.997 101.234V97.3182C120.997 97.3182 120.997 97.3182 120.958 97.3182H119.611C119.611 97.3182 119.611 97.3182 119.571 97.3182V101.29C119.548 102.097 119.218 102.865 118.65 103.437C118.082 104.01 117.318 104.344 116.514 104.372H111.412C110.607 104.344 109.843 104.01 109.275 103.437C108.707 102.865 108.378 102.097 108.354 101.29V81.8769C108.378 81.0698 108.707 80.302 109.275 79.7295C109.843 79.1571 110.607 78.823 111.412 78.7951H116.276C116.766 78.78 117.253 78.8749 117.702 79.073C118.282 79.3337 118.77 79.7631 119.104 80.3056C119.437 80.8482 119.6 81.4787 119.571 82.1152V85.8882C119.571 85.8882 119.571 85.9279 119.611 85.9279H120.997C120.997 85.9279 121.037 85.9279 121.037 85.8882V82.0358C121.037 82.0358 121.037 81.9961 120.997 81.9961C120.991 81.4009 120.879 80.8117 120.665 80.2566C120.283 79.3692 119.642 78.619 118.826 78.1054C118.009 77.5919 117.057 77.3393 116.094 77.3812H111.412C110.511 77.3839 109.633 77.6609 108.893 78.1755" fill="#646363"/>
<path d="M110.937 0C110.778 0.5719 109.762 4.69169 107.887 12.3594C105.246 23.4002 100.702 42.1988 94.2534 68.755L94.3484 68.8027H97.6281L97.7152 68.755C98.5021 65.4507 99.0645 63.1711 99.4025 61.9161L110.937 14.3213C113.868 26.4583 115.452 33.014 115.69 33.9883C116.445 37.1338 118.975 47.4968 123.279 65.0774C123.478 66.3448 123.791 67.5916 124.214 68.8027H127.501L127.588 68.755L123.184 50.486L110.937 0Z" fill="#646363"/>
<path d="M18.434 105.587H19.5193V84.4187C20.3115 86.7381 20.8898 88.5809 21.3571 89.9789L26.6885 106C26.6885 106 27.3222 104.181 28.5818 100.607C32.2786 90.1377 34.1772 84.7391 34.2776 84.4108V105.603H35.4738V77.3176H35.4341C35.2546 77.8736 34.1508 81.0244 32.1228 86.7699C28.6267 96.6987 26.8047 101.899 26.6568 102.37C26.6568 102.37 25.5794 99.0895 23.4326 92.616C20.0421 82.433 18.3468 77.3335 18.3468 77.3176L18.434 105.587Z" fill="#646363"/>
<path d="M6.84443 77.691C6.78106 77.9187 6.36385 79.6026 5.5928 82.7427C4.50488 87.265 2.64059 94.9433 0 105.778H1.38631C1.7111 104.427 1.94084 103.498 2.08343 102.982L6.8365 83.5132C8.04061 88.4803 8.69549 91.1624 8.80111 91.5595C9.10742 92.8463 10.1452 97.0826 11.9144 104.268C11.9967 104.785 12.1266 105.293 12.3026 105.786H13.6492L11.8431 98.2952L6.84443 77.691Z" fill="#646363"/>
<path d="M88.4388 78.4376C87.831 78.8454 87.333 79.3974 86.9889 80.0444C86.6448 80.6915 86.4653 81.4137 86.4663 82.147V87.866C86.4735 88.5143 86.6186 89.1536 86.8918 89.7412C87.165 90.3288 87.5601 90.8512 88.0506 91.2736C88.8469 91.9311 89.8395 92.303 90.8708 92.33H95.6555C96.2344 92.3116 96.8081 92.4458 97.3191 92.7192C97.8205 93.003 98.2339 93.4202 98.5135 93.9249C98.7932 94.4295 98.9281 95.0019 98.9035 95.5787V101.186C98.8814 101.979 98.5569 102.733 97.9969 103.293C97.4368 103.854 96.6839 104.177 95.8932 104.197H90.8153C90.181 104.183 89.5667 103.972 89.0567 103.593C88.6796 103.319 88.3706 102.961 88.1535 102.548C87.9365 102.135 87.8173 101.677 87.805 101.21V99.3675C87.805 99.3675 87.805 99.3675 87.805 99.3278H86.4742C86.4742 99.3278 86.4346 99.3278 86.4346 99.3675V101.131C86.4442 102.065 86.7371 102.973 87.2743 103.736C87.6854 104.316 88.2282 104.788 88.8577 105.116C89.4872 105.443 90.1854 105.616 90.8945 105.619H95.8932C96.7809 105.612 97.6458 105.335 98.3727 104.824C98.9809 104.418 99.4797 103.868 99.8252 103.222C100.171 102.577 100.352 101.856 100.353 101.123V95.4834H100.314C100.298 95.0482 100.232 94.6163 100.115 94.1966C100.005 93.836 99.848 93.4915 99.6481 93.172C99.3272 92.6053 98.8764 92.1234 98.3331 91.766C97.4689 91.1871 96.4394 90.9081 95.402 90.9717H91.2035C91.1163 90.9717 90.9738 90.9717 90.7757 90.9717L90.2845 90.8923C89.6149 90.7485 89.0119 90.3858 88.5702 89.861C88.1286 89.3362 87.8734 88.6791 87.8447 87.9931V82.0993C87.8542 81.4625 88.065 80.8451 88.4467 80.336C88.7206 79.9584 89.0773 79.6488 89.4893 79.4312C89.9014 79.2137 90.3577 79.0938 90.8232 79.081H95.6317C96.1142 79.0654 96.5938 79.1605 97.0339 79.359C97.6036 79.6102 98.0841 80.0284 98.4121 80.5587C98.7402 81.0889 98.9004 81.7064 98.8718 82.3297V83.958H100.361V82.2185C100.361 82.2185 100.361 82.2185 100.321 82.2185C100.315 81.6337 100.202 81.055 99.9887 80.5107C99.7604 79.9787 99.4354 79.4939 99.0302 79.081C98.572 78.6064 98.017 78.2365 97.4031 77.9966C96.7893 77.7567 96.131 77.6524 95.4733 77.691H90.9024C90.0128 77.7006 89.1464 77.9772 88.415 78.4853L88.4388 78.4376ZM79.9862 77.8022V105.603C79.9862 105.603 79.9862 105.643 80.0259 105.643H81.3092V77.7624H80.0021C80.0021 77.7624 79.9625 77.7625 79.9625 77.8022H79.9862ZM60.8551 77.7227V105.627H62.2969L62.3365 105.587V79.0492H70.4643C71.1043 79.068 71.7212 79.2937 72.2229 79.6926C72.5962 79.9693 72.9015 80.3278 73.1157 80.7408C73.3298 81.1537 73.4471 81.6102 73.4587 82.0755V87.874C73.449 88.2843 73.357 88.6884 73.1883 89.0623C73.0195 89.4362 72.7774 89.7722 72.4764 90.0503C71.9063 90.6043 71.1471 90.9195 70.3534 90.932H63.8258L70.8603 101.917C72.3655 104.3 73.1577 105.531 73.2369 105.587H74.8608V105.547L66.2578 92.2903H70.2662C71.2119 92.2713 72.1304 91.9698 72.9042 91.4245C73.482 91.0129 73.9546 90.4703 74.2836 89.8409C74.6126 89.2115 74.7887 88.5131 74.7975 87.8025V82.1629C74.7812 81.2547 74.5063 80.37 74.0053 79.6132C73.5983 79.0023 73.0483 78.5005 72.4035 78.1516C71.7587 77.8027 71.0385 77.6173 70.3058 77.6115H60.9264V77.6513L60.8551 77.7227ZM41.827 77.5956V105.515L41.8666 105.555H55.7456C55.7456 105.555 55.7456 105.555 55.7456 105.515V104.141H43.1975V91.5833H55.706C55.706 91.5833 55.7614 91.5834 55.7614 91.5436V90.2092L55.7218 90.1695H43.1896V78.9936H55.6981C55.6981 78.9936 55.6981 78.9936 55.6981 78.9539V77.5798H41.827L41.7874 77.6195" fill="#646363"/>
</svg>
