<svg width="52" height="49" viewBox="0 0 52 49" fill="none" xmlns="http://www.w3.org/2000/svg">
<path d="M45.472 0H6.49774C2.91573 0 0 2.95487 0 6.58496V15.5301C0 19.1602 2.91573 22.115 6.49774 22.115H10.8255V46.8071C10.8255 48.0212 11.7974 49 12.9894 49H38.9742C40.1723 49 41.1381 48.0212 41.1381 46.8071V22.115H45.472C49.054 22.115 51.9697 19.1602 51.9697 15.5301V6.58496C51.9697 2.95487 49.054 0 45.472 0ZM14.3097 45.3823V12.8168H37.6661V45.3823H14.3097ZM47.6358 15.5301C47.6358 16.7381 46.6639 17.723 45.472 17.723H41.1381V12.9965H42.5073C43.7054 12.9965 44.6712 12.185 44.6712 10.9708C44.6712 9.75664 43.7054 8.94513 42.5073 8.94513H9.45626C8.25818 8.94513 7.29239 9.75664 7.29239 10.9708C7.29239 12.185 8.2643 12.9965 9.45626 12.9965H10.8255V17.723H6.49774C5.30578 17.723 4.33387 16.7381 4.33387 15.5301V6.33097C4.33387 5.12301 5.30578 4.13805 6.49774 4.13805H45.472C46.67 4.13805 47.6358 5.12301 47.6358 6.33097V15.5301Z" fill="#333333"/>
<path d="M22.6657 32.646C22.4151 32.454 22.1033 32.3425 21.7732 32.3425C20.9664 32.3735 20.3307 33.0425 20.3307 33.8602C20.3307 34.1761 20.4407 34.4796 20.6424 34.715L20.6669 34.7398C21.8283 35.8487 23.3197 36.5053 24.9029 36.5982V37.546C24.9396 38.1593 25.4469 38.6363 26.0338 38.6363C26.0521 38.6363 26.0765 38.6363 26.0949 38.6363C26.7061 38.6363 27.2196 38.1283 27.2379 37.5027V36.5796C29.952 36.2266 31.6268 34.5664 31.7368 32.0761C31.7368 29.1584 29.4568 28.2044 27.2379 27.585V24.6425C27.8431 24.8345 28.4177 25.1009 28.9556 25.4354L29.0045 25.4664L29.0595 25.4788C29.2307 25.5159 29.4079 25.5159 29.5791 25.485C29.9703 25.485 30.3371 25.3363 30.6121 25.0575C30.8994 24.7788 31.0645 24.3947 31.0706 23.9796C31.0645 23.6761 30.9544 23.3788 30.7527 23.1496L30.7283 23.1248C29.7625 22.2266 28.5277 21.6752 27.2318 21.5451V20.5478C27.2135 19.9283 26.7 19.4204 26.0704 19.4204C25.7526 19.4142 25.4775 19.5257 25.2513 19.7363C25.0313 19.9469 24.9029 20.2381 24.8907 20.554V21.4956C22.5251 21.5823 20.6179 23.4593 20.4835 25.9124C20.4835 28.9788 23.1425 29.8027 24.8907 30.2611V33.6991C24.0899 33.5319 23.3259 33.1726 22.6657 32.646ZM27.2441 30.9177C28.0754 31.246 28.5766 31.7354 28.5766 32.2434C28.5766 32.9434 28.0876 33.4637 27.2441 33.6929V30.9177ZM23.6437 25.7513C23.6437 25.0823 24.1205 24.5867 24.9029 24.4071V26.8788C24.0227 26.5938 23.6437 26.3336 23.6437 25.7513Z" fill="#333333"/>
</svg>
