<svg width="24" height="24" viewBox="0 0 24 24" fill="none" xmlns="http://www.w3.org/2000/svg">
<path d="M19 13.9998V5.99976C19 4.89976 18.1 3.99976 17 3.99976H3C1.9 3.99976 1 4.89976 1 5.99976V13.9998C1 15.0998 1.9 15.9998 3 15.9998H17C18.1 15.9998 19 15.0998 19 13.9998ZM17 13.9998H3V5.99976H17V13.9998ZM10 6.99976C8.34 6.99976 7 8.33976 7 9.99976C7 11.6598 8.34 12.9998 10 12.9998C11.66 12.9998 13 11.6598 13 9.99976C13 8.33976 11.66 6.99976 10 6.99976ZM23 6.99976V17.9998C23 19.0998 22.1 19.9998 21 19.9998H4C4 18.9998 4 19.0998 4 17.9998H21V6.99976C22.1 6.99976 22 6.99976 23 6.99976Z" fill="white"/>
</svg>
