<svg width="46" height="50" viewBox="0 0 46 50" fill="none" xmlns="http://www.w3.org/2000/svg">
<path d="M27.2056 36.4091C24.2453 37.7972 20.9807 38.3999 17.723 38.1598C15.6063 38.0198 13.5295 37.5141 11.5838 36.6648C7.21236 34.7439 3.97103 31.6294 1.85978 27.3212C0.966711 25.4876 0.388128 23.5156 0.148442 21.4883C-0.295424 17.8102 0.252923 14.2908 1.83672 10.9401C2.7335 9.04051 3.94004 7.30502 5.40639 5.80549C7.3197 3.83133 9.63319 2.2941 12.1898 1.29816C14.7464 0.302218 17.4862 -0.129113 20.2233 0.0334476C22.91 0.177713 25.5342 0.902819 27.9168 2.1593C31.496 4.04638 34.226 6.7908 36.1067 10.3926C37.1431 12.3789 37.809 14.5391 38.0717 16.7665C38.504 20.3606 37.9722 23.8083 36.4605 27.0996C36.0071 28.0902 35.466 29.0378 34.8435 29.9309C34.7715 30.0381 34.7715 30.1062 34.8529 30.2069C37.0146 32.7859 39.1736 35.3666 41.33 37.949C42.5341 39.389 43.7446 40.8245 44.9415 42.2717C45.587 43.0469 45.9028 44.0464 45.8205 45.0539C45.7382 46.0614 45.2645 46.9958 44.502 47.6548C43.8816 48.1966 43.277 48.7594 42.6184 49.2534C41.0332 50.447 38.7238 50.1798 37.444 48.6638C35.7082 46.6082 33.9911 44.5352 32.2654 42.4731C30.5937 40.474 28.9215 38.4751 27.2488 36.4765C27.2331 36.4549 27.2187 36.4324 27.2056 36.4091ZM19.1987 2.80974C18.0616 2.82567 17.037 2.90679 16.0282 3.10743C12.4059 3.82812 9.34426 5.55995 6.89219 8.33262C4.45669 11.085 3.10059 14.3162 2.84046 17.9978C2.65501 20.4744 3.05449 22.96 4.00633 25.2518C5.41287 28.6503 7.70859 31.2846 10.8582 33.1534C13.2994 34.602 15.9547 35.3314 18.7844 35.3987C20.4732 35.4397 22.1577 35.2094 23.7743 34.7164C26.6388 33.8626 29.212 32.2277 31.2083 29.9932C32.9772 28.037 34.2425 25.675 34.8937 23.1138C35.5448 20.5525 35.562 17.87 34.9437 15.3005C34.1431 12.0071 32.4743 9.22062 29.9516 6.97598C26.8597 4.22215 23.2173 2.86261 19.1987 2.80974ZM32.9261 32.2842C31.9465 33.305 30.8609 34.2173 29.6879 35.0054C29.8421 35.1908 29.9826 35.3618 30.1246 35.5313L39.5185 46.7581C39.9379 47.2593 40.5828 47.3129 41.0814 46.8849C41.593 46.4469 42.1037 46.0077 42.6134 45.5673C43.1062 45.1422 43.161 44.5294 42.7488 44.0282C42.4512 43.666 42.1479 43.3039 41.8467 42.9475L32.9261 32.2842Z" fill="#333333"/>
<path d="M19.2268 32.8325C11.56 32.9556 5.36891 26.7251 5.36603 19.1285C5.36603 11.6065 11.4051 5.40495 18.9948 5.40567C20.7905 5.40108 22.5694 5.75331 24.2292 6.44211C25.8891 7.13092 27.3971 8.1427 28.6666 9.41931C29.9361 10.6959 30.9421 12.2122 31.6268 13.8809C32.3114 15.5496 32.6611 17.3379 32.6559 19.143C32.6422 26.6758 26.6032 32.7275 19.2268 32.8325ZM19.0056 8.52022C13.1993 8.49559 8.37582 13.3072 8.46517 19.2878C8.55092 25.0164 13.2209 29.7788 19.1295 29.7179C24.9769 29.6593 29.6591 24.8093 29.5604 18.9257C29.4609 13.1855 24.7665 8.49559 19.0056 8.52022Z" fill="#333333"/>
<path d="M20.7544 17.7624H20.9842C22.1429 17.7624 23.3016 17.7624 24.4595 17.7624C25.2622 17.7624 25.9222 18.3419 26.0109 19.114C26.0593 19.4921 25.9676 19.8748 25.7535 20.1894C25.5393 20.5039 25.2175 20.7283 24.8493 20.8198C24.7034 20.8538 24.5538 20.8699 24.404 20.8676C23.2691 20.8676 22.135 20.8676 21.0001 20.8676H20.7544V21.0849C20.7544 22.2438 20.7544 23.4027 20.7544 24.5616C20.7544 25.4163 20.1462 26.0949 19.3262 26.1594C18.936 26.1891 18.5491 26.0693 18.2432 25.8239C17.9374 25.5785 17.7353 25.2259 17.6776 24.8368C17.6605 24.6994 17.6549 24.5608 17.661 24.4225C17.661 23.2998 17.661 22.1774 17.661 21.0552V20.8676H17.4383C16.2854 20.8676 15.1325 20.8676 13.9796 20.8676C13.2094 20.8676 12.6005 20.3859 12.4326 19.6594C12.3806 19.4343 12.3795 19.2003 12.4295 18.9747C12.4795 18.7491 12.5792 18.5377 12.7213 18.3561C12.8635 18.1744 13.0443 18.0271 13.2507 17.9251C13.457 17.8232 13.6834 17.769 13.9133 17.7668C15.0835 17.7603 16.2545 17.7668 17.4247 17.7668H17.661V16.6803C17.661 15.8054 17.661 14.9304 17.661 14.0554C17.661 13.158 18.3434 12.4569 19.2044 12.4619C20.0806 12.4684 20.7529 13.1544 20.7544 14.0496C20.7544 15.2143 20.7544 16.3788 20.7544 17.543V17.7624Z" fill="#333333"/>
</svg>
