<svg width="105" height="66" viewBox="0 0 105 66" fill="none" xmlns="http://www.w3.org/2000/svg">
<path d="M100.813 1.44C100.817 1.40344 100.817 1.36658 100.813 1.33002C100.813 1.33002 100.813 1.26999 100.813 1.23999V0.850006C100.799 0.821981 100.782 0.795202 100.763 0.769989V0.670013L100.703 0.589996C100.706 0.560087 100.706 0.529909 100.703 0.5L100.633 0.420013L100.563 0.350006L100.503 0.279999L100.423 0.200012L100.353 0.140015L100.253 0.0700073L100.143 0H98.8029L77.373 3C77.0998 3.03874 76.8369 3.13089 76.5994 3.27121C76.3619 3.41153 76.1543 3.59727 75.9886 3.81781C75.8228 4.03835 75.7021 4.2894 75.6333 4.55658C75.5646 4.82376 75.5492 5.10185 75.5879 5.375C75.6267 5.64815 75.7188 5.911 75.8592 6.14853C75.9995 6.38606 76.1852 6.59362 76.4058 6.75937C76.6263 6.92512 76.8773 7.04582 77.1444 7.11456C77.4116 7.1833 77.6898 7.19874 77.9629 7.16L94.5829 4.82001L61.5829 51.65C60.8936 52.6301 59.9786 53.4299 58.9152 53.9821C57.8518 54.5342 56.6712 54.8225 55.4729 54.8225C54.2747 54.8225 53.0941 54.5342 52.0307 53.9821C50.9673 53.4299 50.0523 52.6301 49.3629 51.65L38.0729 35.65C36.9946 34.121 35.5647 32.8734 33.9036 32.0123C32.2425 31.1512 30.399 30.7017 28.528 30.7017C26.657 30.7017 24.8133 31.1512 23.1523 32.0123C21.4912 32.8734 20.0613 34.121 18.9829 35.65L0.382969 62.05C0.0620569 62.5062 -0.0644815 63.0712 0.0311621 63.6206C0.126806 64.1701 0.436806 64.6591 0.892978 64.98C1.34915 65.3009 1.91405 65.4275 2.46354 65.3318C3.01302 65.2362 3.502 64.9262 3.82291 64.47L22.4229 38.07C23.1122 37.0899 24.0273 36.2901 25.0907 35.7379C26.1541 35.1858 27.3348 34.8975 28.533 34.8975C29.7312 34.8975 30.9118 35.1858 31.9753 35.7379C33.0387 36.2901 33.9536 37.0899 34.643 38.07L45.9329 54.07C47.0112 55.599 48.4411 56.8466 50.1022 57.7077C51.7633 58.5689 53.6069 59.0183 55.4779 59.0183C57.349 59.0183 59.1926 58.5689 60.8537 57.7077C62.5147 56.8466 63.9446 55.599 65.023 54.07L97.753 7.60001L99.993 23.45C100.065 23.951 100.315 24.4095 100.696 24.7417C101.078 25.074 101.567 25.258 102.073 25.26H102.363C102.636 25.2219 102.899 25.1304 103.137 24.9907C103.375 24.851 103.583 24.6658 103.749 24.4457C103.915 24.2257 104.036 23.975 104.106 23.7081C104.175 23.4411 104.191 23.1632 104.153 22.89L100.813 1.44Z" fill="white"/>
</svg>
