<svg width="85" height="49" viewBox="0 0 85 49" fill="none" xmlns="http://www.w3.org/2000/svg">
<path d="M82.9709 9.10955L61.2409 1.10955C60.9917 1.00476 60.7238 0.951551 60.4535 0.95316C60.1832 0.95477 59.9161 1.01115 59.6682 1.1189C59.4203 1.22665 59.1968 1.38354 59.0113 1.58008C58.8257 1.77662 58.6819 2.00874 58.5885 2.26241C58.4952 2.51608 58.4543 2.78604 58.4682 3.05599C58.4821 3.32593 58.5506 3.59026 58.6695 3.833C58.7884 4.07574 58.9553 4.29186 59.1601 4.4683C59.3648 4.64473 59.6032 4.77783 59.8609 4.85955L77.6009 11.3795L1.17081 45.1095C0.754323 45.2993 0.415563 45.6261 0.210973 46.0355C0.00638232 46.4449 -0.0516258 46.9121 0.0466659 47.3591C0.144958 47.8061 0.393549 48.2059 0.751012 48.4917C1.10847 48.7775 1.55323 48.932 2.0109 48.9295C2.3016 48.9299 2.58864 48.865 2.85087 48.7395L78.5309 15.3595L72.2809 32.3595C72.0967 32.8568 72.1175 33.4069 72.3388 33.8889C72.5601 34.3708 72.9636 34.7451 73.4608 34.9295C73.6825 35.0081 73.9158 35.0486 74.1509 35.0495C74.5608 35.0501 74.9608 34.9248 75.297 34.6905C75.6333 34.4562 75.8895 34.1242 76.0309 33.7395L84.1509 11.6295C84.3199 11.1385 84.2912 10.601 84.071 10.1307C83.8507 9.6604 83.4562 9.29421 82.9709 9.10955Z" fill="white"/>
</svg>
