<svg width="78" height="86" viewBox="0 0 78 86" fill="none" xmlns="http://www.w3.org/2000/svg">
<path d="M41.0512 36.9362V34.4294C43.4213 33.599 45.1908 31.3064 45.1908 28.5337C45.1908 25.0949 42.4285 22.2972 39.0332 22.2972C37.9014 22.2972 36.9812 21.3651 36.9812 20.2188C36.9812 19.0819 37.8937 18.1483 39.0131 18.1405H39.0286C39.7589 18.1405 40.5294 18.5158 41.2535 19.2274C42.0688 20.0265 43.3673 20.0046 44.1563 19.1789C44.9453 18.3547 44.9237 17.038 44.1084 16.2389C43.0554 15.2067 42.0008 14.6281 41.0512 14.3153V11.9899C41.0512 10.8421 40.1325 9.91159 38.9992 9.91159C37.8659 9.91159 36.9472 10.8421 36.9472 11.9899V14.3529C34.5787 15.2239 32.8771 17.5306 32.8771 20.2173C32.8771 23.6561 35.6394 26.4538 39.0347 26.4538C40.1665 26.4538 41.0868 27.3859 41.0868 28.5322C41.0868 29.6753 40.1742 30.6121 39.0363 30.6121C39.0301 30.6121 39.0239 30.6121 39.0178 30.6121C38.1299 30.6043 37.2143 30.06 36.3697 29.042C35.641 28.1616 34.347 28.0458 33.4778 28.784C32.6085 29.5221 32.4958 30.8326 33.223 31.713C34.3084 33.0235 35.5869 33.9415 36.9457 34.4106V36.9362C36.9457 38.0841 37.8644 39.0146 38.9977 39.0146C40.1325 39.0161 41.0512 38.0856 41.0512 36.9362Z" fill="url(#paint0_linear)"/>
<path d="M69.6128 65.3871C68.7281 60.5611 64.5422 56.8939 59.5256 56.8939H47.2104C43.8151 56.8939 41.0528 54.0962 41.0528 50.6573V48.7448C53.3881 47.686 63.1078 37.1802 63.1078 24.4177C63.1078 10.9531 52.2918 0 38.9992 0C25.7066 0 14.8922 10.9531 14.8922 24.4177C14.8922 37.1818 24.6119 47.686 36.9472 48.7448V50.6573C36.9472 54.0962 34.1849 56.8939 30.7896 56.8939H18.4744C13.4563 56.8939 9.27193 60.5611 8.3872 65.3871C3.62076 66.2832 0 70.5227 0 75.6052C0 81.3366 4.60431 86 10.2632 86C15.9221 86 20.5264 81.3366 20.5264 75.6052C20.5264 70.6807 17.1264 66.549 12.5808 65.4809C13.3482 62.9209 15.6982 61.0521 18.4744 61.0521H30.7896C33.0979 61.0521 35.2302 60.2765 36.9472 58.9675V65.4184C32.2688 66.3848 28.7376 70.5837 28.7376 75.6036C28.7376 81.3351 33.3419 85.9984 39.0008 85.9984C44.6597 85.9984 49.264 81.3351 49.264 75.6036C49.264 70.5837 45.7328 66.3848 41.0543 65.4184V58.9675C42.7713 60.2749 44.9036 61.0521 47.2119 61.0521H59.5272C62.3018 61.0521 64.6534 62.9209 65.4192 65.4809C60.8736 66.549 57.4736 70.6807 57.4736 75.6052C57.4736 81.3366 62.0779 86 67.7368 86C73.3957 86 78 81.3366 78 75.6052C77.9985 70.5227 74.3777 66.2832 69.6128 65.3871ZM16.4208 75.6052C16.4208 79.0441 13.6585 81.8418 10.2632 81.8418C6.86787 81.8418 4.10559 79.0441 4.10559 75.6052C4.10559 72.1663 6.86787 69.3686 10.2632 69.3686C13.6585 69.3686 16.4208 72.1663 16.4208 75.6052ZM18.9963 24.4177C18.9963 13.2472 27.9686 4.15824 38.9992 4.15824C50.0298 4.15824 59.0022 13.2457 59.0022 24.4177C59.0022 35.5882 50.0283 44.6772 38.9992 44.6772C27.9702 44.6772 18.9963 35.5882 18.9963 24.4177ZM45.1568 75.6052C45.1568 79.0441 42.3946 81.8418 38.9992 81.8418C35.6039 81.8418 32.8416 79.0441 32.8416 75.6052C32.8416 72.1663 35.6039 69.3686 38.9992 69.3686C42.3946 69.3686 45.1568 72.1663 45.1568 75.6052ZM67.7353 81.8418C64.3399 81.8418 61.5776 79.0441 61.5776 75.6052C61.5776 72.1663 64.3399 69.3686 67.7353 69.3686C71.1306 69.3686 73.8929 72.1663 73.8929 75.6052C73.8929 79.0441 71.1306 81.8418 67.7353 81.8418Z" fill="url(#paint1_linear)"/>
<defs>
<linearGradient id="paint0_linear" x1="76.006" y1="9.61476" x2="20.3289" y2="64.016" gradientUnits="userSpaceOnUse">
<stop stop-color="#832FED"/>
<stop offset="1" stop-color="#4E5FF1"/>
</linearGradient>
<linearGradient id="paint1_linear" x1="76.006" y1="9.61476" x2="20.3289" y2="64.016" gradientUnits="userSpaceOnUse">
<stop stop-color="#832FED"/>
<stop offset="1" stop-color="#4E5FF1"/>
</linearGradient>
</defs>
</svg>
