<svg width="59" height="70" viewBox="0 0 59 70" fill="none" xmlns="http://www.w3.org/2000/svg">
<path d="M58.9254 19.1106C58.8937 18.4616 58.8779 17.7646 58.8621 16.9715C58.8067 12.9417 55.641 9.60887 51.6601 9.38454C43.9041 8.94391 37.9129 6.38822 32.7924 1.33292L32.7449 1.28486C30.893 -0.429618 28.1071 -0.429618 26.2473 1.29287L26.1998 1.34094C21.0792 6.38822 15.0881 8.95192 7.33209 9.38454C3.3512 9.60887 0.193398 12.9417 0.130084 16.9715C0.12217 17.7406 0.0984267 18.4376 0.0667695 19.1186V19.2468C-0.0836021 27.3865 -0.273545 37.5211 3.09003 46.7585C4.94198 51.8538 7.75155 56.2842 11.4396 59.9295C15.6342 64.0714 21.1188 67.3562 27.7431 69.6956C27.9726 69.7757 28.2179 69.8478 28.4633 69.8958C28.8036 69.9679 29.1518 70 29.5 70C29.8483 70 30.1965 69.9679 30.5447 69.8958C30.7901 69.8478 31.0275 69.7757 31.2649 69.6956C37.8813 67.3482 43.3659 64.0634 47.5526 59.9215C51.2406 56.2762 54.0502 51.8458 55.9021 46.7505C59.2736 37.4891 59.0837 27.3384 58.9333 19.1747L58.9254 19.1106ZM51.3831 45.06C47.9087 54.5938 40.8096 61.1472 29.6742 65.0889C29.6504 65.0969 29.6267 65.1049 29.6029 65.1129C29.5396 65.129 29.4763 65.129 29.4051 65.1129C29.3813 65.1049 29.3576 65.1049 29.3338 65.0969C18.1905 61.1472 11.0835 54.6018 7.60909 45.068C4.56209 36.6959 4.73621 27.4746 4.88658 19.3429V19.3029C4.91823 18.5898 4.94198 17.8528 4.94989 17.0436C4.97363 15.5615 6.13704 14.3357 7.60118 14.2556C12.0965 13.9992 16.0457 13.1179 19.6784 11.5637C23.3031 10.0094 26.5243 7.82229 29.5 4.89807C32.4916 7.83831 35.7048 10.0175 39.3217 11.5637C42.9543 13.1179 46.9036 13.9992 51.3989 14.2556C52.863 14.3357 54.0264 15.5615 54.0502 17.0436C54.066 17.8688 54.0818 18.6058 54.1135 19.2948C54.2639 27.4346 54.438 36.6559 51.3831 45.06Z" fill="url(#paint0_linear)"/>
<path d="M29.5 17.348C19.8842 17.348 12.0648 25.2635 12.0648 34.9975C12.0648 44.7315 19.8842 52.647 29.5 52.647C39.1159 52.647 46.9352 44.7315 46.9352 34.9975C46.9352 25.2715 39.1159 17.348 29.5 17.348ZM42.1154 34.9975C42.1154 42.0397 36.4567 47.7679 29.5 47.7679C22.5434 47.7679 16.8847 42.0397 16.8847 34.9975C16.8847 27.9553 22.5434 22.2271 29.5 22.2271C36.4567 22.2271 42.1154 27.9553 42.1154 34.9975Z" fill="url(#paint1_linear)"/>
<path d="M35.8156 28.6443C35.1746 28.6443 34.5652 28.9007 34.1141 29.3574L26.4926 37.0725L24.6327 35.1898C23.6909 34.2364 22.1635 34.2364 21.2296 35.1898C20.7785 35.6544 20.5252 36.2633 20.5252 36.9123C20.5252 37.5612 20.7785 38.1781 21.2296 38.6347L24.791 42.2399C25.2421 42.6966 25.8515 42.953 26.4926 42.953C27.1337 42.953 27.7431 42.6966 28.1942 42.2399L37.5172 32.8023C38.459 31.849 38.459 30.3027 37.5172 29.3574C37.0582 28.9007 36.4567 28.6443 35.8156 28.6443Z" fill="url(#paint2_linear)"/>
<defs>
<linearGradient id="paint0_linear" x1="57.4917" y1="7.82597" x2="12.3712" y2="48.7957" gradientUnits="userSpaceOnUse">
<stop stop-color="#832FED"/>
<stop offset="1" stop-color="#4E5FF1"/>
</linearGradient>
<linearGradient id="paint1_linear" x1="57.4917" y1="7.82597" x2="12.3712" y2="48.7957" gradientUnits="userSpaceOnUse">
<stop stop-color="#832FED"/>
<stop offset="1" stop-color="#4E5FF1"/>
</linearGradient>
<linearGradient id="paint2_linear" x1="57.4917" y1="7.82597" x2="12.3712" y2="48.7957" gradientUnits="userSpaceOnUse">
<stop stop-color="#832FED"/>
<stop offset="1" stop-color="#4E5FF1"/>
</linearGradient>
</defs>
</svg>
