<svg xmlns="http://www.w3.org/2000/svg" xmlns:xlink="http://www.w3.org/1999/xlink" viewBox="0 0 59.44 36.17"><defs><style>.cls-1,.cls-2,.cls-3{fill-rule:evenodd;}.cls-1{fill:url(#linear-gradient);}.cls-2{fill:url(#linear-gradient-2);}.cls-3{fill:url(#linear-gradient-3);}</style><linearGradient id="linear-gradient" y1="17.02" x2="10.83" y2="17.02" gradientUnits="userSpaceOnUse"><stop offset="0" stop-color="#802fea"/><stop offset="0.35" stop-color="#8034ea"/><stop offset="0.73" stop-color="#7e41ec"/><stop offset="1" stop-color="#7d4fed"/></linearGradient><linearGradient id="linear-gradient-2" x1="10" y1="17.02" x2="22.67" y2="17.02" gradientUnits="userSpaceOnUse"><stop offset="0" stop-color="#7d4fed"/><stop offset="1" stop-color="#4e4eef"/></linearGradient><linearGradient id="linear-gradient-3" x1="19.31" y1="18.09" x2="59.44" y2="18.09" gradientUnits="userSpaceOnUse"><stop offset="0" stop-color="#4e4eef"/><stop offset="0.49" stop-color="#4e53ef"/><stop offset="1" stop-color="#4e5fef"/></linearGradient></defs><title>ICONOS-WEB-FINAL-SVG</title><g id="Layer_1" data-name="Layer 1"><path class="cls-1" d="M5,11.2H0V22.83H5A5.82,5.82,0,0,0,5,11.2Zm.13,8.86H2.81V14H5.16A2.94,2.94,0,0,1,8,17,2.94,2.94,0,0,1,5.16,20.06Z"/><polygon class="cls-2" points="10 11.2 13.07 11.2 16.33 19.19 19.6 11.2 22.67 11.2 17.87 22.83 14.8 22.83 10 11.2"/><path class="cls-3" d="M50.86,19a8.56,8.56,0,0,0-8.51,7.51v.09H37.19v-17h5.15v.09A8.58,8.58,0,1,0,56.93,2.51a8.59,8.59,0,0,0-12.14,0A8.63,8.63,0,0,0,42.3,8.07v.09H36.49a.71.71,0,0,0-.7.7V17H29.58l-2.39-5.8H24.11l-4.8,11.63h3.07l3.27-8,3.27,8H32L30.16,18.4h5.63v8.91a.7.7,0,0,0,.7.7H42.3v.09A8.58,8.58,0,1,0,50.86,19Zm4.36-5.09a6.87,6.87,0,0,1-8.72,0l-.06,0,.05-.11a4.43,4.43,0,0,1,4.17-2.92h.4a4.41,4.41,0,0,1,4.16,2.91l0,.05,0,.07ZM48.76,7.26a2.1,2.1,0,1,1,2.1,2.11h0A2.11,2.11,0,0,1,48.76,7.26Zm2.1-5.58a6.89,6.89,0,0,1,5.62,10.89l-.1.14-.07-.15a6,6,0,0,0-2.83-2.67l-.13-.05.1-.11a3.58,3.58,0,1,0-6.18-2.47,3.62,3.62,0,0,0,1,2.48l.1.1-.13.06a5.9,5.9,0,0,0-2.83,2.66l-.07.15-.1-.13a6.9,6.9,0,0,1,5.62-10.9Zm4.36,31.25a6.87,6.87,0,0,1-8.72,0l-.06,0,.05-.1a4.43,4.43,0,0,1,4.17-2.92h.4a4.41,4.41,0,0,1,4.16,2.91l0,0,0,.07Zm-6.46-6.66a2.1,2.1,0,1,1,2.1,2.1h0A2.1,2.1,0,0,1,48.76,26.27Zm7.72,5.31-.1.13-.07-.14a5.92,5.92,0,0,0-2.83-2.67l-.13-.06.1-.1a3.59,3.59,0,1,0-5.18,0l.1.1-.13.06a6,6,0,0,0-2.83,2.67l-.07.15-.1-.14a6.8,6.8,0,0,1-1.28-4,6.9,6.9,0,1,1,12.52,4Z"/></g></svg>