<svg xmlns="http://www.w3.org/2000/svg" xmlns:xlink="http://www.w3.org/1999/xlink" viewBox="0 0 50.24 50.22"><defs><style>.cls-1{fill:url(#linear-gradient);}.cls-2{fill:#802fea;}.cls-3{fill:#4e5fef;}</style><linearGradient id="linear-gradient" y1="25.11" x2="50.24" y2="25.11" gradientUnits="userSpaceOnUse"><stop offset="0" stop-color="#802fea"/><stop offset="0.27" stop-color="#7b33ea"/><stop offset="0.57" stop-color="#6e40ec"/><stop offset="0.88" stop-color="#5855ee"/><stop offset="1" stop-color="#4e5fef"/></linearGradient></defs><title>ICONOS-WEB-FINAL-SVG</title><g id="Layer_1" data-name="Layer 1"><path class="cls-1" d="M49.66,44.91l-5.17-5.17a11.37,11.37,0,0,0-1.65-12.86V6.29a2.19,2.19,0,0,0-2.18-2.18h-2V1.59A1.59,1.59,0,0,0,37.06,0H35a1.59,1.59,0,0,0-1.59,1.59V4.11H29V1.59A1.59,1.59,0,0,0,27.41,0H25.3a1.59,1.59,0,0,0-1.59,1.59V4.11H19.34V1.59A1.59,1.59,0,0,0,17.75,0H15.64a1.59,1.59,0,0,0-1.58,1.59V4.11H9.68V1.59A1.59,1.59,0,0,0,8.09,0H6A1.59,1.59,0,0,0,4.4,1.59V4.11H2.18A2.19,2.19,0,0,0,0,6.29V38.93a2.18,2.18,0,0,0,2.18,2.18H25A11.45,11.45,0,0,0,34.31,46a11.33,11.33,0,0,0,5.52-1.42l5.1,5.1a2,2,0,0,0,1.39.58,2,2,0,0,0,1.39-.58l1.95-2A2,2,0,0,0,49.66,44.91ZM35.07,1.7H37V7.28a.94.94,0,0,1-1.88,0Zm-9.66,0h1.88V7.28a.94.94,0,1,1-1.88,0Zm-9.66,0h1.89V7.28a.95.95,0,0,1-1.89,0ZM6.1,1.7H8V7.28a.94.94,0,0,1-1.88,0ZM2.18,5.81H4.4V7.28a2.64,2.64,0,0,0,5.28,0V5.81h4.38V7.28a2.64,2.64,0,0,0,5.28,0V5.81h4.37V7.28a2.64,2.64,0,1,0,5.28,0V5.81h4.38V7.28a2.64,2.64,0,0,0,5.28,0V5.81h2a.47.47,0,0,1,.48.48v6.08H1.7V6.29A.48.48,0,0,1,2.18,5.81Zm0,33.6a.48.48,0,0,1-.48-.48V14.07H41.14V25.33a11.34,11.34,0,0,0-12.87-.55,1.66,1.66,0,0,0-1.37-.73H24.35a1.67,1.67,0,0,0-1.67,1.67v2.55a1.66,1.66,0,0,0,1.16,1.58,11.5,11.5,0,0,0-1,4.65A11.38,11.38,0,0,0,24,39.41Zm22.3-10.77h-.13a.38.38,0,0,1-.37-.37V25.72a.37.37,0,0,1,.37-.36H26.9a.35.35,0,0,1,.3.17A11.75,11.75,0,0,0,24.48,28.64ZM34.31,44.3a9.8,9.8,0,1,1,9.79-9.8A9.81,9.81,0,0,1,34.31,44.3Zm14.17,2.21-1.95,2a.3.3,0,0,1-.43,0l-4.86-4.85a11.47,11.47,0,0,0,2.35-2.42l4.89,4.89A.3.3,0,0,1,48.48,46.51Z"/><path class="cls-2" d="M18.49,16.75H15.94a1.66,1.66,0,0,0-1.66,1.67V21a1.66,1.66,0,0,0,1.66,1.67h2.55A1.67,1.67,0,0,0,20.16,21V18.42A1.67,1.67,0,0,0,18.49,16.75ZM18.86,21a.36.36,0,0,1-.37.37H15.94a.36.36,0,0,1-.36-.37V18.42a.36.36,0,0,1,.36-.37h2.55a.36.36,0,0,1,.37.37Z"/><path class="cls-2" d="M24.35,22.63H26.9A1.67,1.67,0,0,0,28.57,21V18.42a1.67,1.67,0,0,0-1.67-1.67H24.35a1.67,1.67,0,0,0-1.67,1.67V21A1.67,1.67,0,0,0,24.35,22.63ZM24,18.42a.37.37,0,0,1,.37-.37H26.9a.36.36,0,0,1,.36.37V21a.36.36,0,0,1-.36.37H24.35A.37.37,0,0,1,24,21Z"/><path class="cls-3" d="M32.75,22.63H35.3A1.67,1.67,0,0,0,37,21V18.42a1.67,1.67,0,0,0-1.67-1.67H32.75a1.66,1.66,0,0,0-1.66,1.67V21A1.66,1.66,0,0,0,32.75,22.63Zm-.36-4.21a.36.36,0,0,1,.36-.37H35.3a.37.37,0,0,1,.37.37V21a.37.37,0,0,1-.37.37H32.75a.36.36,0,0,1-.36-.37Z"/><path class="cls-2" d="M10.09,24.05H7.54a1.67,1.67,0,0,0-1.67,1.67v2.55a1.67,1.67,0,0,0,1.67,1.67h2.55a1.66,1.66,0,0,0,1.66-1.67V25.72A1.66,1.66,0,0,0,10.09,24.05Zm.36,4.22a.37.37,0,0,1-.36.37H7.54a.37.37,0,0,1-.37-.37V25.72a.36.36,0,0,1,.37-.36h2.55a.36.36,0,0,1,.36.36Z"/><path class="cls-2" d="M18.49,24.05H15.94a1.66,1.66,0,0,0-1.66,1.67v2.55a1.66,1.66,0,0,0,1.66,1.67h2.55a1.67,1.67,0,0,0,1.67-1.67V25.72A1.67,1.67,0,0,0,18.49,24.05Zm.37,4.22a.37.37,0,0,1-.37.37H15.94a.37.37,0,0,1-.36-.37V25.72a.36.36,0,0,1,.36-.36h2.55a.36.36,0,0,1,.37.36Z"/><path class="cls-2" d="M10.09,31.36H7.54A1.67,1.67,0,0,0,5.87,33v2.55a1.67,1.67,0,0,0,1.67,1.67h2.55a1.66,1.66,0,0,0,1.66-1.67V33A1.66,1.66,0,0,0,10.09,31.36Zm.36,4.22a.36.36,0,0,1-.36.36H7.54a.36.36,0,0,1-.37-.36V33a.37.37,0,0,1,.37-.37h2.55a.37.37,0,0,1,.36.37Z"/><path class="cls-2" d="M18.49,31.36H15.94A1.66,1.66,0,0,0,14.28,33v2.55a1.66,1.66,0,0,0,1.66,1.67h2.55a1.67,1.67,0,0,0,1.67-1.67V33A1.67,1.67,0,0,0,18.49,31.36Zm.37,4.22a.36.36,0,0,1-.37.36H15.94a.36.36,0,0,1-.36-.36V33a.37.37,0,0,1,.36-.37h2.55a.37.37,0,0,1,.37.37Z"/></g></svg>