<svg xmlns="http://www.w3.org/2000/svg" xmlns:xlink="http://www.w3.org/1999/xlink" viewBox="0 0 50.82 41.79"><defs><style>.cls-1{fill:#7d4fed;}.cls-2{fill:url(#linear-gradient);}</style><linearGradient id="linear-gradient" y1="21.07" x2="50.82" y2="21.07" gradientUnits="userSpaceOnUse"><stop offset="0" stop-color="#802fea"/><stop offset="0.27" stop-color="#7b33ea"/><stop offset="0.57" stop-color="#6e40ec"/><stop offset="0.88" stop-color="#5855ee"/><stop offset="1" stop-color="#4e5fef"/></linearGradient></defs><title>ICONOS-WEB-FINAL-SVG</title><g id="Layer_1" data-name="Layer 1"><path class="cls-1" d="M25.15,22.9A.85.85,0,0,0,26,22v-1l.08,0a4,4,0,0,0-.82-7.87,2.27,2.27,0,1,1,2.27-2.27.86.86,0,0,0,.86.85.85.85,0,0,0,.85-.85A4,4,0,0,0,26.09,7H26v-1a.86.86,0,1,0-1.71,0v1l-.07,0a4,4,0,0,0,1,7.82h0a2.27,2.27,0,0,1,.09,4.53h0a.57.57,0,0,0-.29,0h0a2.28,2.28,0,0,1-2-2.26.86.86,0,0,0-1.72,0A4,4,0,0,0,24.23,21l.07,0v1A.85.85,0,0,0,25.15,22.9Z"/><path class="cls-2" d="M33.91,39.92,50.46,28.19A.85.85,0,0,0,50.69,27a4.71,4.71,0,0,0-6.31-1.64L37,29.3l0-.08A6,6,0,0,0,32,26.3h-.36l.31-.18A13.75,13.75,0,1,0,15.8,24.06l.19.17h-.37a12.31,12.31,0,0,0-6.16,1.63L9.31,26l0-1.76a.86.86,0,0,0-.86-.85h0l-7.58.12a.81.81,0,0,0-.6.26.85.85,0,0,0-.24.6L.25,41a.81.81,0,0,0,.26.6.87.87,0,0,0,.59.24h0l7.59-.11a.85.85,0,0,0,.82-.87V40l2-1.17a3.48,3.48,0,0,1,2.58-.39L26,41.19h0a12.57,12.57,0,0,0,2.59.16A12.71,12.71,0,0,0,33.8,40,.39.39,0,0,0,33.91,39.92ZM7.71,40,2,40.07V40L1.72,25.15h.1l5.77-.08v.09L7.81,40ZM13.23,14.1a12,12,0,1,1,12,12A12.06,12.06,0,0,1,13.23,14.1ZM28.06,39.66a10.21,10.21,0,0,1-1.74-.14L14.46,36.73a5.17,5.17,0,0,0-3.84.59L9.49,38v-.17L9.34,28l0,0a10.62,10.62,0,0,1,10.74-1l.72.33a9.08,9.08,0,0,0,3.84.85h.12L31.7,28h.06a4.27,4.27,0,0,1,4.16,3.25l0,.12-10.41.15a.87.87,0,0,0-.85.87A.89.89,0,0,0,25,33a.85.85,0,0,0,.6.24h0l11.38-.17a.84.84,0,0,0,.82-.86A5.57,5.57,0,0,0,37.62,31l0-.07.07,0,7.51-3.95a3,3,0,0,1,3.45.33l.1.08-.1.07L33,38.49A10.75,10.75,0,0,1,28.06,39.66Z"/></g></svg>