<svg xmlns="http://www.w3.org/2000/svg" xmlns:xlink="http://www.w3.org/1999/xlink" viewBox="0 0 36.72 52.77"><defs><style>.cls-1{fill:url(#linear-gradient);}.cls-2{fill:url(#linear-gradient-2);}</style><linearGradient id="linear-gradient" y1="26.39" x2="36.72" y2="26.39" gradientUnits="userSpaceOnUse"><stop offset="0" stop-color="#802fea"/><stop offset="0.27" stop-color="#7b33ea"/><stop offset="0.57" stop-color="#6e40ec"/><stop offset="0.88" stop-color="#5855ee"/><stop offset="1" stop-color="#4e5fef"/></linearGradient><linearGradient id="linear-gradient-2" x1="7.8" y1="23.95" x2="28.93" y2="23.95" xlink:href="#linear-gradient"/></defs><title>ICONOS-WEB-FINAL-SVG</title><g id="Layer_1" data-name="Layer 1"><path class="cls-1" d="M12.66,50.47a8.14,8.14,0,0,0,5.71,2.3,8,8,0,0,0,8.08-7.85V34.79a1.51,1.51,0,0,1,.22-.81,2.15,2.15,0,0,1,.73-.6,18.25,18.25,0,0,0,4.71-3.73l.46-.53.14-.16,0-.06a17.54,17.54,0,0,0,4-11.07C36.72,8,28.49,0,18.36,0S0,8,0,17.83A17.55,17.55,0,0,0,6.64,31.55c.21.18.44.36.68.53l.1.07.19.14.27.19c.47.32,1,.62,1.46.9a1.92,1.92,0,0,1,.73.64,1.42,1.42,0,0,1,.22.77V44.92A7.66,7.66,0,0,0,12.66,50.47ZM24.91,45.7a6.52,6.52,0,0,1-6.54,5.62,6.65,6.65,0,0,1-4.66-1.87,6.31,6.31,0,0,1-1.88-3.75v-.05h13.1ZM25,44.2H11.78V39.7H25ZM10.09,32.13c-.47-.26-.93-.54-1.36-.83s-.86-.62-1.27-1l0,0,0,0A16.21,16.21,0,0,1,1.46,17.83,16.68,16.68,0,0,1,18.36,1.42a16.68,16.68,0,0,1,16.9,16.41,16,16,0,0,1-2.44,8.49l-.09.15h0a17.64,17.64,0,0,1-6.07,5.66,3.49,3.49,0,0,0-1.24,1.07,2.81,2.81,0,0,0-.46,1.6v3.46H11.78V34.79a2.77,2.77,0,0,0-.45-1.54A3.46,3.46,0,0,0,10.09,32.13Z"/><path class="cls-2" d="M28.93,17.29A3.68,3.68,0,0,0,28.11,15a3.83,3.83,0,0,0-1.35-1,2.6,2.6,0,0,0,.07-.61,2.76,2.76,0,0,0-.83-2,2.88,2.88,0,0,0-3.21-.54,2.58,2.58,0,0,0-.65-1,2.67,2.67,0,0,0-3.78.07,2.67,2.67,0,0,0-3.78-.07,2.56,2.56,0,0,0-.64,1,2.93,2.93,0,0,0-3.21.54,2.71,2.71,0,0,0-.84,2A2.62,2.62,0,0,0,10,14a3.74,3.74,0,0,0-1.35,1,3.58,3.58,0,0,0,0,4.56,3.74,3.74,0,0,0,1.35,1,2.62,2.62,0,0,0-.08.61,2.67,2.67,0,0,0,.84,2,2.89,2.89,0,0,0,3.2.55,2.58,2.58,0,0,0,.65,1,2.87,2.87,0,0,0,.44.34l1.17,13.73h1.42L16.51,25.5a2.6,2.6,0,0,0,1.85-.82,2.62,2.62,0,0,0,1.85.82l-1.3,13.3.14,0h1.27L21.71,25.1a2.79,2.79,0,0,0,.43-.34,2.58,2.58,0,0,0,.65-1A2.76,2.76,0,0,0,24,24a2.84,2.84,0,0,0,2-.81,2.7,2.7,0,0,0,.83-2,2.6,2.6,0,0,0-.07-.61,3.83,3.83,0,0,0,1.35-1A3.68,3.68,0,0,0,28.93,17.29Zm-9.87,2.12a2.76,2.76,0,0,0,1.23.3A2.63,2.63,0,0,0,22.14,19a2.5,2.5,0,0,0,.77-1.81.7.7,0,0,0-1.4,0,1.17,1.17,0,0,1-.36.84,1.28,1.28,0,0,1-1.73,0,1.16,1.16,0,0,1-.36-.84V11.63a1.17,1.17,0,0,1,.36-.84,1.28,1.28,0,0,1,1.73,0,1.17,1.17,0,0,1,.36.84V12a2.93,2.93,0,0,0-.19.4,2.74,2.74,0,0,0-.17.94,2.64,2.64,0,0,0,.47,1.51,2.82,2.82,0,0,0,1.24,1,.71.71,0,0,0,.92-.35.67.67,0,0,0,0-.52.66.66,0,0,0-.37-.38,1.4,1.4,0,0,1-.63-.52,1.38,1.38,0,0,1-.23-.76,1.27,1.27,0,0,1,.08-.48,1.4,1.4,0,0,1,.67-.75,1.52,1.52,0,0,1,1.7.24,1.39,1.39,0,0,1,.42,1,1.34,1.34,0,0,1-.05.35,1.08,1.08,0,0,1-.11.3.58.58,0,0,0-.1.21.67.67,0,0,0,.53.82,2.46,2.46,0,0,1,1.32.82,2.29,2.29,0,0,1,0,2.86,2.53,2.53,0,0,1-.9.68,3,3,0,0,0-.54-.47A2.88,2.88,0,0,0,24,18.46a2.83,2.83,0,0,0-.87.14.63.63,0,0,0-.41.35.61.61,0,0,0,0,.51.71.71,0,0,0,.88.44,1.31,1.31,0,0,1,.44-.07,1.45,1.45,0,0,1,.81.24,1.41,1.41,0,0,1,.63,1.15,1.35,1.35,0,0,1-.42,1,1.5,1.5,0,0,1-1.7.25,1.28,1.28,0,0,1-.49-.43.74.74,0,0,0-.61-.34.69.69,0,0,0-.7.69V23a1.19,1.19,0,0,1-.36.84,1.28,1.28,0,0,1-1.73,0,1.17,1.17,0,0,1-.36-.84Zm-4.55,2.27a.68.68,0,0,0-.59.33,1.46,1.46,0,0,1-.51.44,1.51,1.51,0,0,1-1.7-.25,1.41,1.41,0,0,1-.37-1.33,1.42,1.42,0,0,1,.58-.8,1.5,1.5,0,0,1,.81-.24,1.37,1.37,0,0,1,.45.07.71.71,0,0,0,.88-.44.7.7,0,0,0-.45-.87,3.29,3.29,0,0,0-.88-.13,2.88,2.88,0,0,0-1.59.47,2.63,2.63,0,0,0-.53.47,2.53,2.53,0,0,1-.9-.68,2.26,2.26,0,0,1,0-2.86A2.39,2.39,0,0,1,11,15a.7.7,0,0,0,.44-.31.61.61,0,0,0,.08-.51,1,1,0,0,0-.11-.27,1,1,0,0,1-.1-.24,1.34,1.34,0,0,1,0-.35,1.38,1.38,0,0,1,.41-1,1.53,1.53,0,0,1,1.7-.24,1.38,1.38,0,0,1,.68.75,1.51,1.51,0,0,1,.08.48,1.38,1.38,0,0,1-.23.76,1.42,1.42,0,0,1-.63.51.71.71,0,0,0-.38.38.7.7,0,0,0,.93.88,2.91,2.91,0,0,0,1.25-1,2.71,2.71,0,0,0,.46-1.51,2.74,2.74,0,0,0-.17-.94,2.42,2.42,0,0,0-.19-.4v-.39a1.15,1.15,0,0,1,.37-.84,1.26,1.26,0,0,1,1.72,0,1.17,1.17,0,0,1,.36.84v5.52a1.17,1.17,0,0,1-.36.84,1.28,1.28,0,0,1-1.73,0,1.17,1.17,0,0,1-.36-.84.7.7,0,0,0-1.4,0A2.54,2.54,0,0,0,14.58,19a2.66,2.66,0,0,0,3.08.45V23a1.17,1.17,0,0,1-.36.84,1.28,1.28,0,0,1-1.73,0,1.19,1.19,0,0,1-.36-.84v-.58A.69.69,0,0,0,14.51,21.68Z"/></g></svg>