<svg xmlns="http://www.w3.org/2000/svg" xmlns:xlink="http://www.w3.org/1999/xlink" viewBox="0 0 68.23 55.7"><defs><style>.cls-1{fill:#802fea;}.cls-2,.cls-4,.cls-6{stroke-miterlimit:10;}.cls-2{stroke-width:0.6px;fill:url(#linear-gradient);stroke:url(#linear-gradient-2);}.cls-3{fill:#7d4fed;}.cls-4{stroke-width:0.4px;fill:url(#linear-gradient-3);stroke:url(#linear-gradient-4);}.cls-5{fill:#4e5fef;}.cls-6{stroke-width:0.3px;fill:url(#linear-gradient-5);stroke:url(#linear-gradient-6);}</style><linearGradient id="linear-gradient" y1="40.78" x2="17.38" y2="40.78" gradientUnits="userSpaceOnUse"><stop offset="0" stop-color="#802fea"/><stop offset="0.35" stop-color="#8034ea"/><stop offset="0.73" stop-color="#7e41ec"/><stop offset="1" stop-color="#7d4fed"/></linearGradient><linearGradient id="linear-gradient-2" x1="-0.3" y1="40.78" x2="17.68" y2="40.78" xlink:href="#linear-gradient"/><linearGradient id="linear-gradient-3" x1="21.7" y1="34.6" x2="41.37" y2="34.6" gradientUnits="userSpaceOnUse"><stop offset="0" stop-color="#7d4fed"/><stop offset="0.52" stop-color="#7b4fed"/><stop offset="0.71" stop-color="#744fed"/><stop offset="0.84" stop-color="#684fee"/><stop offset="0.95" stop-color="#584eef"/><stop offset="1" stop-color="#4e4eef"/></linearGradient><linearGradient id="linear-gradient-4" x1="21.5" y1="34.6" x2="41.57" y2="34.6" xlink:href="#linear-gradient-3"/><linearGradient id="linear-gradient-5" x1="45.87" y1="27.82" x2="68.23" y2="27.82" gradientUnits="userSpaceOnUse"><stop offset="0" stop-color="#4e4eef"/><stop offset="0.24" stop-color="#4e53ef"/><stop offset="1" stop-color="#4e5fef"/></linearGradient><linearGradient id="linear-gradient-6" x1="45.72" y1="27.82" x2="68.38" y2="27.82" xlink:href="#linear-gradient-5"/></defs><title>ICONOS-WEB-FINAL-SVG</title><g id="Layer_1" data-name="Layer 1"><path class="cls-1" d="M8.82,43.45a1.33,1.33,0,0,1,1.32,1.33.59.59,0,0,0,.59.58.58.58,0,0,0,.58-.58,2.49,2.49,0,0,0-2-2.44v-.53a.59.59,0,1,0-1.17,0v.56a2.49,2.49,0,0,0,.66,4.9,1.33,1.33,0,0,1,0,2.65.69.69,0,0,0-.2,0A1.32,1.32,0,0,1,7.49,48.6a.58.58,0,1,0-1.16,0A2.48,2.48,0,0,0,8.16,51v.59a.59.59,0,0,0,1.17,0V51a2.5,2.5,0,0,0-.51-4.94,1.33,1.33,0,1,1,0-2.65Z"/><path class="cls-2" d="M9.33,38.2V35.6h1.13a6.8,6.8,0,0,0,6.8-6.8V27a.69.69,0,0,0-.69-.69H14.73a6.81,6.81,0,0,0-6.1,3.8,6.81,6.81,0,0,0-6.1-3.8H.7A.69.69,0,0,0,0,27V28.8a6.8,6.8,0,0,0,6.8,6.8H7.94v2.62a8.62,8.62,0,1,0,1.39,0Zm0-5.13a5.41,5.41,0,0,1,5.4-5.41h1.14V28.8a5.41,5.41,0,0,1-5.41,5.4H10.3l1-1.43a.39.39,0,0,0-.54-.55l-1.44,1Zm-3.48-.44L7,34.2H6.8a5.41,5.41,0,0,1-5.41-5.4V27.66H2.53a5.41,5.41,0,0,1,5.41,5.41v.16L6.36,32.12A.37.37,0,0,0,5.85,32.63Zm3,21.3a7.2,7.2,0,1,1,7.2-7.2A7.21,7.21,0,0,1,8.82,53.93Z"/><path class="cls-3" d="M31.54,42.07a1.54,1.54,0,0,1,1.53,1.53.68.68,0,1,0,1.35,0,2.89,2.89,0,0,0-2.29-2.82v-.61a.68.68,0,1,0-1.35,0v.65a2.88,2.88,0,0,0,.76,5.66,1.54,1.54,0,0,1,.05,3.07.59.59,0,0,0-.23,0A1.54,1.54,0,0,1,30,48a.67.67,0,0,0-.67-.68.68.68,0,0,0-.68.68,2.9,2.9,0,0,0,2.13,2.78v.67a.68.68,0,1,0,1.35,0v-.63a2.88,2.88,0,0,0-.59-5.7,1.54,1.54,0,1,1,0-3.07Z"/><path class="cls-4" d="M32.05,36.05V33.4h1.13A6.79,6.79,0,0,0,40,26.6V24.77a.69.69,0,0,0-.69-.69H37.45a6.75,6.75,0,0,0-5.4,2.7v-4h1.13A6.79,6.79,0,0,0,40,16V14.2a.69.69,0,0,0-.69-.69H37.45a6.81,6.81,0,0,0-6.1,3.8,6.81,6.81,0,0,0-6.1-3.8H23.41a.69.69,0,0,0-.69.69V16a6.79,6.79,0,0,0,6.8,6.8h1.13v4a6.75,6.75,0,0,0-5.4-2.7H23.41a.69.69,0,0,0-.69.69V26.6a6.79,6.79,0,0,0,6.8,6.8h1.13v2.67a9.88,9.88,0,1,0,1.4,0Zm0-15.75a5.4,5.4,0,0,1,5.4-5.4h1.14V16a5.41,5.41,0,0,1-5.41,5.41H33L34,20a.39.39,0,0,0-.55-.54l-1.43,1Zm0,10.57a5.4,5.4,0,0,1,5.4-5.4h1.14V26.6A5.41,5.41,0,0,1,33.18,32H33l1-1.44a.39.39,0,0,0-.55-.54l-1.43,1Zm-3.48-11,1.11,1.58h-.16A5.41,5.41,0,0,1,24.11,16V14.9h1.14a5.4,5.4,0,0,1,5.4,5.4v.17l-1.57-1.11A.36.36,0,0,0,28.57,19.86Zm0,10.57L29.68,32h-.16a5.41,5.41,0,0,1-5.41-5.41V25.47h1.14a5.4,5.4,0,0,1,5.4,5.4V31l-1.57-1.11A.36.36,0,0,0,28.57,30.43Zm3,23.82a8.39,8.39,0,1,1,8.39-8.39A8.39,8.39,0,0,1,31.54,54.25Z"/><path class="cls-5" d="M57.05,40.14a1.75,1.75,0,0,1,1.75,1.75.78.78,0,0,0,1.55,0,3.31,3.31,0,0,0-2.62-3.22V38a.77.77,0,0,0-1.54,0v.75a3.29,3.29,0,0,0,.86,6.47,1.75,1.75,0,0,1,.07,3.5.82.82,0,0,0-.27,0,1.76,1.76,0,0,1-1.55-1.74.77.77,0,0,0-1.54,0,3.31,3.31,0,0,0,2.43,3.18v.77a.77.77,0,0,0,1.54,0v-.73a3.29,3.29,0,0,0-.68-6.51,1.75,1.75,0,0,1,0-3.5Z"/><path class="cls-6" d="M57.56,33.32V30.4H58.7a6.79,6.79,0,0,0,6.8-6.8V21.77a.69.69,0,0,0-.7-.69H63a6.78,6.78,0,0,0-5.41,2.7v-4H58.7A6.79,6.79,0,0,0,65.5,13V11.2a.7.7,0,0,0-.7-.7H63a6.79,6.79,0,0,0-5.41,2.71V9.33H58.7a6.8,6.8,0,0,0,6.8-6.8V.7a.7.7,0,0,0-.7-.7H63a6.8,6.8,0,0,0-6.1,3.8A6.81,6.81,0,0,0,50.76,0H48.93a.69.69,0,0,0-.69.7V2.53A6.8,6.8,0,0,0,55,9.33h1.14v3.88a6.78,6.78,0,0,0-5.41-2.71H48.93a.7.7,0,0,0-.69.7V13A6.79,6.79,0,0,0,55,19.83h1.14v4a6.77,6.77,0,0,0-5.41-2.7H48.93a.69.69,0,0,0-.69.69V23.6A6.79,6.79,0,0,0,55,30.4h1.14v2.94a11.2,11.2,0,1,0,1.39,0Zm0-26.52A5.41,5.41,0,0,1,63,1.39h1.14V2.53A5.41,5.41,0,0,1,58.7,7.94h-.16l1-1.44A.4.4,0,0,0,59,6L57.56,7Zm0,10.5A5.41,5.41,0,0,1,63,11.9h1.14V13a5.41,5.41,0,0,1-5.41,5.41h-.16l1-1.44a.39.39,0,0,0-.55-.54l-1.44,1Zm0,10.57A5.41,5.41,0,0,1,63,22.47h1.14V23.6A5.41,5.41,0,0,1,58.7,29h-.16l1-1.44A.39.39,0,0,0,59,27l-1.44,1ZM54.09,6.36,55.2,7.94H55a5.41,5.41,0,0,1-5.4-5.41V1.39h1.13A5.41,5.41,0,0,1,56.17,6.8V7L54.59,5.85A.36.36,0,0,0,54.09,6.36Zm0,10.5,1.11,1.58H55A5.41,5.41,0,0,1,49.63,13V11.9h1.13a5.41,5.41,0,0,1,5.41,5.4v.17l-1.58-1.11A.36.36,0,0,0,54.09,16.86Zm0,10.57L55.2,29H55a5.41,5.41,0,0,1-5.4-5.41V22.47h1.13a5.41,5.41,0,0,1,5.41,5.4V28l-1.58-1.11A.36.36,0,0,0,54.09,27.43Zm3,26.68a9.64,9.64,0,1,1,9.64-9.64A9.64,9.64,0,0,1,57.05,54.11Z"/></g></svg>