<svg width="57" height="82" viewBox="0 0 57 82" fill="none" xmlns="http://www.w3.org/2000/svg">
<path d="M51.4479 40.6764L43.1351 33.6121V2.35632C43.1351 1.05563 42.0999 0 40.8243 0H2.31081C1.03524 0 0 1.05563 0 2.35632V51.2107C0 52.5114 1.03524 53.567 2.31081 53.567H11.1812C10.924 54.3054 10.7838 55.0971 10.7838 55.9234C10.7838 59.8207 13.8941 62.9923 17.7162 62.9923H20.027V63.3961C20.027 67.9877 21.6615 72.3234 24.6486 75.7118V79.6437C24.6486 80.9444 25.6839 82 26.9595 82H45.4459C46.7215 82 47.7568 80.9444 47.7568 79.6437V75.33L55.3701 59.8019C56.4362 57.6278 57 55.1945 57 52.7643C57 48.0815 54.9757 43.6752 51.4479 40.6764ZM4.46757 4.71264H38.6676V48.8544H33.8919V41.7854C33.8919 37.8881 30.7815 34.7165 26.9595 34.7165C23.1374 34.7165 20.027 37.8881 20.027 41.7854V48.8544H4.46757V4.71264ZM17.7162 58.2797C16.4422 58.2797 15.4054 57.2225 15.4054 55.9234C15.4054 54.6243 16.4422 53.567 17.7162 53.567H20.027V58.2797H17.7162ZM51.2368 57.6953L43.3785 73.7215C43.2183 74.0482 43.1351 74.4095 43.1351 74.7755V77.2889H29.2703V74.7755C29.2703 74.1503 29.0269 73.5518 28.594 73.1088C26.049 70.5137 24.6486 67.0656 24.6486 63.3961C24.6486 63.2327 24.6486 42.1106 24.6486 41.7854C24.6486 40.4863 25.6854 39.4291 26.9595 39.4291C28.2335 39.4291 29.2703 40.4863 29.2703 41.7854V55.9234C29.2703 57.2241 30.3055 58.2797 31.5811 58.2797C32.8567 58.2797 33.8919 57.2241 33.8919 55.9234V53.567H40.8243C42.0999 53.567 43.1351 52.5114 43.1351 51.2107V39.7464L48.4885 44.2957C50.9611 46.3975 52.3784 49.4843 52.3784 52.7643C52.3784 54.4672 51.984 56.1716 51.2368 57.6953Z" fill="url(#paint0_linear)"/>
<defs>
<linearGradient id="paint0_linear" x1="55.5428" y1="9.16757" x2="4.58706" y2="47.326" gradientUnits="userSpaceOnUse">
<stop stop-color="#832FED"/>
<stop offset="1" stop-color="#4E5FF1"/>
</linearGradient>
</defs>
</svg>
