<svg xmlns="http://www.w3.org/2000/svg" xmlns:xlink="http://www.w3.org/1999/xlink" viewBox="0 0 62.17 47.92"><defs><style>.cls-1{fill:url(#linear-gradient);}.cls-2{fill:#7d4fed;}.cls-3{fill:#802fea;}.cls-4{fill:#4e5fef;}</style><linearGradient id="linear-gradient" y1="23.96" x2="62.17" y2="23.96" gradientUnits="userSpaceOnUse"><stop offset="0" stop-color="#802fea"/><stop offset="0.27" stop-color="#7b33ea"/><stop offset="0.57" stop-color="#6e40ec"/><stop offset="0.88" stop-color="#5855ee"/><stop offset="1" stop-color="#4e5fef"/></linearGradient></defs><title>ICONOS-WEB-FINAL-SVG</title><g id="Layer_1" data-name="Layer 1"><path class="cls-1" d="M62.17,39.91A8,8,0,0,0,55.12,32h0v0A4.08,4.08,0,0,0,51,28H31.79V25.26h0A12.64,12.64,0,0,0,31.1,0,12.65,12.65,0,0,0,18.44,12.64a12.66,12.66,0,0,0,11.49,12.6h0V28H11.17A4.07,4.07,0,0,0,7.1,31.91v0h0A8,8,0,0,0,2.34,45.57,8,8,0,1,0,9,32H8.91V31.9a2.28,2.28,0,0,1,2.26-2.1H30V32h0a7.87,7.87,0,0,0-4.51,2.25,8,8,0,1,0,11.34,0,7.91,7.91,0,0,0-4.93-2.31h0V29.8H51a2.27,2.27,0,0,1,2.25,2.1V32h0a8,8,0,0,0-7.07,8,8,8,0,1,0,16,0Zm-47.77,0A6.39,6.39,0,1,1,8,33.52,6.36,6.36,0,0,1,14.4,39.91ZM35.6,35.4a6.38,6.38,0,0,1-4.51,10.89h0A6.39,6.39,0,1,1,35.6,35.4ZM31.09,23.59h0A10.93,10.93,0,0,1,23.36,4.91,10.86,10.86,0,0,1,31.09,1.7h0a10.95,10.95,0,0,1,0,21.89Zm23.07,22.7a6.39,6.39,0,1,1,0-12.77h0a6.39,6.39,0,0,1,0,12.77Z"/><path class="cls-2" d="M31.09,11.7a1.81,1.81,0,0,1,0-3.61,1.79,1.79,0,0,1,1.27.53,1.81,1.81,0,0,1,.53,1.28,1,1,0,0,0,1,.95.93.93,0,0,0,.67-.28,1,1,0,0,0,.28-.67A3.74,3.74,0,0,0,32,6.32V5.57a1,1,0,1,0-1.9,0v.74a3.75,3.75,0,0,0-2.75,3.58,3.63,3.63,0,0,0,1.08,2.62,3.68,3.68,0,0,0,2.62,1.09,1.81,1.81,0,0,1,1.8,1.8,1.81,1.81,0,0,1-1.8,1.8v0a1.81,1.81,0,0,1-1.8-1.8,1,1,0,0,0-.27-.68,1,1,0,0,0-1.63.68A3.75,3.75,0,0,0,30.13,19v.74a1,1,0,1,0,1.9,0V19a3.75,3.75,0,0,0,2.76-3.58,3.7,3.7,0,0,0-3.7-3.7Z"/><path class="cls-3" d="M8,37.82a.71.71,0,0,1,.51.21.75.75,0,0,1,.21.51.5.5,0,0,0,.14.35.51.51,0,0,0,.86-.35A1.73,1.73,0,0,0,8.52,36.9v-.28a.51.51,0,0,0-.5-.5.5.5,0,0,0-.5.5v.27a1.77,1.77,0,0,0-1.23,1.65A1.72,1.72,0,0,0,8,40.26.72.72,0,1,1,8,41.7H8a.71.71,0,0,1-.51-.21A.75.75,0,0,1,7.29,41a.5.5,0,0,0-.14-.35.49.49,0,0,0-.36-.15.51.51,0,0,0-.5.5,1.75,1.75,0,0,0,1.22,1.65v.27a.5.5,0,0,0,.5.5.5.5,0,0,0,.5-.5v-.27A1.75,1.75,0,0,0,9.73,41,1.72,1.72,0,0,0,8,39.26a.67.67,0,0,1-.5-.21A.71.71,0,0,1,8,37.82Z"/><path class="cls-2" d="M31.09,37.82a.71.71,0,0,1,.51.21.75.75,0,0,1,.21.51.47.47,0,0,0,.15.35.5.5,0,0,0,.7,0,.47.47,0,0,0,.15-.35,1.73,1.73,0,0,0-1.22-1.64v-.28a.5.5,0,0,0-1,0v.27a1.72,1.72,0,0,0,.5,3.37.72.72,0,1,1,0,1.44h0a.72.72,0,0,1-.72-.72.51.51,0,0,0-.15-.35.47.47,0,0,0-.35-.15.5.5,0,0,0-.5.5,1.74,1.74,0,0,0,1.22,1.65v.27a.5.5,0,1,0,1,0v-.27A1.75,1.75,0,0,0,32.81,41a1.74,1.74,0,0,0-1.72-1.72.72.72,0,1,1,0-1.44Z"/><path class="cls-4" d="M54.23,39.33a.71.71,0,1,1,.73-.72.5.5,0,1,0,1,0A1.73,1.73,0,0,0,54.73,37V36.7a.5.5,0,1,0-1,0V37A1.71,1.71,0,0,0,53,39.83a1.7,1.7,0,0,0,1.21.5.73.73,0,0,1,0,1.45h0a.73.73,0,0,1-.72-.73.5.5,0,0,0-.14-.35.53.53,0,0,0-.36-.15.51.51,0,0,0-.5.5,1.75,1.75,0,0,0,1.22,1.65V43a.5.5,0,0,0,.5.5.5.5,0,0,0,.5-.5V42.7A1.75,1.75,0,0,0,56,41.06a1.72,1.72,0,0,0-1.72-1.73Z"/></g></svg>