<svg width="74" height="79" viewBox="0 0 74 79" fill="none" xmlns="http://www.w3.org/2000/svg">
<path d="M73.8456 39.3208L73.7529 39.0965L73.6896 39.1281L62.4957 10.6371H67.3707C68.4254 10.6371 69.284 9.75913 69.284 8.68057C69.284 7.60202 68.4254 6.72401 67.3707 6.72401H38.7704V1.95656C38.7704 0.878006 37.9119 0 36.8572 0C35.8025 0 34.9423 0.878006 34.9423 1.95656V6.70506H6.35905C5.30436 6.70506 4.44578 7.58307 4.44578 8.66162C4.44578 9.74018 5.30436 10.6182 6.35905 10.6182H11.4534L0.152877 39.3208C0.0571357 39.5513 0.00617683 39.7945 0 40.0503C0 48.1008 6.40383 54.6511 14.2777 54.6511C22.1517 54.6511 28.5555 48.1008 28.5555 40.0456C28.5493 39.7961 28.4984 39.5513 28.4042 39.3255L17.1175 10.604H34.9408V65.1303C31.0587 65.4667 27.4715 66.8279 24.8201 68.9708C22.0822 71.1848 20.575 74.0509 20.575 77.0419C20.575 78.1204 21.4336 79 22.4883 79H51.2214C52.2761 79 53.1347 78.122 53.1347 77.0419C53.1347 74.0494 51.6275 71.1832 48.8896 68.9708C46.2382 66.8279 42.651 65.4667 38.7689 65.1303V10.604H56.813L45.5974 39.3208C45.5016 39.5513 45.4491 39.7945 45.4445 40.0503C45.4445 48.1008 51.8499 54.6511 59.7223 54.6511C67.5946 54.6511 74 48.1008 74 40.0456C73.9938 39.7945 73.9413 39.5513 73.8456 39.3208ZM4.00568 42.0416H24.4649C23.5445 47.0712 19.298 50.7206 14.2685 50.7617C9.20657 50.7538 4.9322 47.1044 4.00568 42.0416ZM4.78087 38.1269L14.3025 13.8933L23.7916 38.1285H4.78087V38.1269ZM48.9035 75.0853H24.7907C25.4501 73.443 26.9279 71.9428 28.9894 70.8311C31.2285 69.623 34.0158 68.9582 36.8386 68.9582C42.3885 68.9582 47.4906 71.5701 48.9035 75.0853ZM69.9094 42.0416C68.9829 47.1044 64.7085 50.7538 59.6466 50.7617H59.4227V50.7743C54.4858 50.6275 50.3505 47.0049 49.4502 42.0416H69.9094ZM50.1235 38.1269L59.645 13.9091L69.1342 38.1269H50.1235Z" fill="url(#paint0_linear)"/>
<defs>
<linearGradient id="paint0_linear" x1="72.1082" y1="8.83217" x2="20.9514" y2="60.4553" gradientUnits="userSpaceOnUse">
<stop stop-color="#832FED"/>
<stop offset="1" stop-color="#4E5FF1"/>
</linearGradient>
</defs>
</svg>
