<svg width="86" height="78" viewBox="0 0 86 78" fill="none" xmlns="http://www.w3.org/2000/svg">
<path d="M85.4492 69.54L74.0261 58.1281C76.9989 52.8024 77.4004 46.4295 75.2321 40.8199V5.63857C75.2321 2.52454 72.7057 0 69.5894 0H5.64269C2.52638 0 0 2.52454 0 5.63857V50.7442C0 53.8583 2.52638 56.3828 5.64269 56.3828H22.5693V61.61H20.6879C19.6487 61.61 18.8066 62.4516 18.8066 63.4901C18.8066 64.5285 19.6487 65.3701 20.6879 65.3701H45.1184C48.3042 67.421 52.0974 68.6115 56.1689 68.6115C59.6809 68.6115 63.0987 67.7063 66.1136 66.0291L77.541 77.4496C77.8932 77.8016 78.3716 78 78.8702 78C79.3702 77.9986 79.8485 77.7987 80.1993 77.4438L85.4463 72.2007C86.1841 71.4634 86.1841 70.2743 85.4492 69.54ZM3.76131 50.7442V5.63857C3.76131 4.60008 4.60344 3.75856 5.64269 3.75856H69.5894C70.6286 3.75856 71.4707 4.60008 71.4707 5.63857V34.6556C71.1982 34.3485 70.9156 34.0458 70.6214 33.7518C66.789 29.9208 61.5899 27.7699 56.1689 27.7699C44.8835 27.7699 35.7346 36.9136 35.7346 48.1907C35.7346 49.713 35.9028 51.1961 36.2188 52.6242H5.64269C4.60344 52.6242 3.76131 51.7827 3.76131 50.7442ZM26.3306 56.3828H37.4479C38.2871 58.2961 39.4119 60.0574 40.7686 61.61H26.3306V56.3828ZM56.1602 64.853C52.7772 64.8515 49.6319 63.8435 47.0041 62.1126C46.8664 61.9852 46.7113 61.8794 46.5417 61.7969C42.276 58.7785 39.4916 53.8061 39.4931 48.1864C39.496 38.9848 46.9635 31.5285 56.1718 31.5314C60.5984 31.5198 64.8439 33.2796 67.9631 36.4182C71.0866 39.5439 72.8419 43.7804 72.8405 48.198C72.8347 57.3981 65.3686 64.8559 56.1602 64.853ZM78.8731 73.4608L69.7271 64.3185L72.3143 61.7332L81.4603 70.8754L78.8731 73.4608Z" fill="url(#paint0_linear)"/>
<path d="M40.1656 18.2468C40.9005 18.5973 41.7238 18.7943 42.5934 18.7943C45.7097 18.7943 48.2361 16.2697 48.2361 13.1557C48.2361 10.0417 45.7097 7.51713 42.5934 7.51713C39.4771 7.51713 36.9507 10.0417 36.9507 13.1557C36.9507 14.0276 37.1493 14.8532 37.503 15.5904L31.8646 21.2247C31.1269 20.8713 30.3007 20.6728 29.4281 20.6728C28.5526 20.6728 27.725 20.8713 26.9858 21.2276L21.3503 15.5962C21.7055 14.8576 21.904 14.0305 21.904 13.1557C21.904 10.0417 19.3776 7.51713 16.2613 7.51713C13.145 7.51713 10.6201 10.0417 10.6201 13.1557C10.6201 16.2697 13.1465 18.7943 16.2628 18.7943C17.1296 18.7943 17.9514 18.5987 18.6863 18.2482L24.3319 23.8897C23.9825 24.624 23.7854 25.4438 23.7854 26.3114C23.7854 29.4254 26.3118 31.95 29.4281 31.95C32.5444 31.95 35.0708 29.4254 35.0708 26.3114C35.0708 25.4424 34.8737 24.6197 34.5229 23.8854L40.1656 18.2468ZM42.5934 11.2757C43.6327 11.2757 44.4748 12.1172 44.4748 13.1557C44.4748 14.1942 43.6327 15.0357 42.5934 15.0357C41.5542 15.0357 40.712 14.1942 40.712 13.1557C40.712 12.1172 41.5542 11.2757 42.5934 11.2757ZM14.3814 13.1557C14.3814 12.1172 15.2235 11.2757 16.2628 11.2757C17.302 11.2757 18.1442 12.1172 18.1442 13.1557C18.1442 14.1942 17.302 15.0357 16.2628 15.0357C15.2235 15.0357 14.3814 14.1942 14.3814 13.1557ZM29.4281 28.1914C28.3889 28.1914 27.5467 27.3499 27.5467 26.3114C27.5467 25.2729 28.3889 24.4314 29.4281 24.4314C30.4674 24.4314 31.308 25.2744 31.308 26.3114C31.308 27.3499 30.4659 28.1914 29.4281 28.1914Z" fill="url(#paint1_linear)"/>
<defs>
<linearGradient id="paint0_linear" x1="83.8014" y1="8.72037" x2="34.0289" y2="67.8397" gradientUnits="userSpaceOnUse">
<stop stop-color="#832FED"/>
<stop offset="1" stop-color="#4E5FF1"/>
</linearGradient>
<linearGradient id="paint1_linear" x1="83.8014" y1="8.72037" x2="34.0289" y2="67.8397" gradientUnits="userSpaceOnUse">
<stop stop-color="#832FED"/>
<stop offset="1" stop-color="#4E5FF1"/>
</linearGradient>
</defs>
</svg>
