<svg width="51" height="51" viewBox="0 0 51 51" fill="none" xmlns="http://www.w3.org/2000/svg">
<path fill-rule="evenodd" clip-rule="evenodd" d="M25.3658 1.15585C26.1066 0.415086 27.1115 -0.000740591 28.1591 9.90196e-07L46.8433 0.0132034C49.0206 0.0147414 50.7853 1.77942 50.7868 3.95674L50.8 22.6409C50.8007 23.6885 50.3849 24.6934 49.6441 25.4342L25.4342 49.6441C23.893 51.1853 21.3944 51.1853 19.8532 49.6441L1.15585 30.9468C-0.385283 29.4056 -0.385283 26.907 1.15585 25.3658L25.3658 1.15585ZM28.1565 3.58756C28.0613 3.5875 27.97 3.6253 27.9026 3.69264L11.2766 20.3187L30.4813 39.5234L47.1074 22.8974C47.1747 22.83 47.2125 22.7387 47.2124 22.6434L47.1992 3.95927C47.1991 3.76133 47.0387 3.60091 46.8407 3.60077L28.1565 3.58756ZM27.9445 42.0602L8.73977 22.8555L3.69264 27.9026C3.55254 28.0427 3.55254 28.2699 3.69264 28.41L22.39 47.1074C22.5301 47.2475 22.7573 47.2475 22.8974 47.1074L27.9445 42.0602ZM37.5894 13.5793C36.5834 12.5733 35.1644 12.645 34.4144 13.395C33.6644 14.145 33.5927 15.564 34.5987 16.57C35.6047 17.576 37.0237 17.5042 37.7737 16.7542C38.5236 16.0042 38.5954 14.5853 37.5894 13.5793ZM31.8776 10.8582C34.1804 8.55547 37.8759 8.79219 40.1262 11.0425C42.3765 13.2928 42.6132 16.9883 40.3104 19.291C38.0077 21.5938 34.3122 21.3571 32.0619 19.1068C29.8116 16.8565 29.5749 13.161 31.8776 10.8582Z" fill="#333333"/>
</svg>
