<svg width="113" height="97" viewBox="0 0 113 97" fill="none" xmlns="http://www.w3.org/2000/svg">
<path d="M58.7569 81.8246C76.9433 81.8246 91.7378 66.8759 91.7378 48.4998C91.7378 30.1238 76.9433 15.1751 58.7569 15.1751C40.5704 15.1751 25.7759 30.1238 25.7759 48.4998C25.7759 66.8759 40.5704 81.8246 58.7569 81.8246ZM58.7569 19.7086C74.4696 19.7086 87.251 32.6233 87.251 48.4998C87.251 64.3764 74.4696 77.2911 58.7569 77.2911C43.0441 77.2911 30.2627 64.3764 30.2627 48.4998C30.2627 32.6233 43.0441 19.7086 58.7569 19.7086Z" fill="white"/>
<path d="M51.0695 60.6589C53.0736 61.9827 54.5333 62.4965 56.3609 62.6688V64.0016C56.3609 65.2529 57.366 66.2684 58.6043 66.2684C59.8427 66.2684 60.8477 65.2529 60.8477 64.0016V62.4542C64.488 61.5021 66.8211 58.3528 67.3386 55.2458C68.0056 51.2321 65.849 47.6052 61.9724 46.221C61.6015 46.088 61.2246 45.952 60.8477 45.8099V38.6771C62.2266 38.9733 63.1749 39.5355 63.2137 39.5596C64.2607 40.2155 65.6366 39.8981 66.2947 38.8433C66.9557 37.7855 66.6417 36.3831 65.5947 35.7152C65.4751 35.6396 63.5727 34.4518 60.8477 34.074V32.992C60.8477 31.7407 59.8427 30.7252 58.6043 30.7252C57.366 30.7252 56.3609 31.7407 56.3609 32.992V34.3309C56.2383 34.3642 56.1126 34.3974 55.99 34.4367C53.3727 35.2316 51.4194 37.4893 50.89 40.3243C50.4054 42.9296 51.243 45.4472 53.0766 46.901C53.9321 47.578 54.973 48.2006 56.3609 48.8444V58.102C55.4067 57.9569 54.6769 57.6184 53.5253 56.8567C52.4873 56.1707 51.0964 56.4638 50.4204 57.5126C49.7444 58.5614 50.0315 59.9758 51.0695 60.6589ZM62.9146 54.4963C62.7202 55.6568 62.0203 56.8749 60.8477 57.5881V50.6488C63.1091 51.6582 63.0552 53.653 62.9146 54.4963ZM55.0486 40.8907C55.1683 40.2499 55.596 39.5596 56.3609 39.2846V43.7124C55.144 43.0607 54.8201 42.1223 55.0486 40.8907Z" fill="white"/>
<path d="M107.349 0.851981C106.574 -0.127271 105.165 -0.284435 104.196 0.49534C103.227 1.27511 103.071 2.7047 103.843 3.68093L106.093 6.52499H91.8246C90.5862 6.52499 89.5812 7.54051 89.5812 8.79178C89.5812 10.043 90.5862 11.0586 91.8246 11.0586H106.093L103.843 13.9026C103.068 14.8819 103.227 16.3084 104.196 17.0882C105.171 17.874 106.58 17.7048 107.349 16.7316L112.509 10.2032C113.164 9.3751 113.164 8.19939 112.509 7.37428L107.349 0.851981Z" fill="white"/>
<path d="M5.65411 96.1477C6.42584 97.1239 7.8347 97.2871 8.80684 96.5043C9.77598 95.7246 9.93153 94.298 9.1598 93.3187L6.91042 90.4717H21.1754C22.4138 90.4717 23.4188 89.4561 23.4188 88.2049C23.4188 86.9536 22.4138 85.9381 21.1754 85.9381H6.90742L9.15681 83.091C9.93153 82.1118 9.77299 80.6852 8.80384 79.9054C7.8347 79.1226 6.42285 79.2828 5.65112 80.2621L0.491304 86.7904C-0.163768 87.6185 -0.163768 88.7912 0.491304 89.6194L5.65411 96.1477Z" fill="white"/>
<path d="M58.7569 92.5752C34.7046 92.5752 15.1362 72.8028 15.1362 48.4998C15.1362 24.1969 34.7046 4.42444 58.7569 4.42444C82.8091 4.42444 102.378 24.1969 102.378 48.4998C102.378 72.8028 82.8091 92.5752 58.7569 92.5752ZM58.7569 8.95801C37.1783 8.95801 19.623 26.6964 19.623 48.4998C19.623 70.3033 37.1783 88.0417 58.7569 88.0417C80.3354 88.0417 97.8907 70.3033 97.8907 48.4998C97.8907 26.6964 80.3354 8.95801 58.7569 8.95801Z" fill="white"/>
</svg>
