<svg width="93" height="86" viewBox="0 0 93 86" fill="none" xmlns="http://www.w3.org/2000/svg">
<path d="M25.0403 31.2323H22.3572C20.7978 31.2323 19.4971 29.9779 19.4971 28.3863C19.4971 26.8345 20.7577 25.5402 22.3572 25.5402H29.0641C30.4465 25.5402 31.5685 24.4237 31.5685 23.048C31.5685 21.6724 30.4465 20.5559 29.0641 20.5559H22.3572C17.9661 20.5559 14.4883 24.1031 14.4883 28.3863C14.4883 32.7559 18.0529 36.2167 22.3572 36.2167H25.0403C26.5997 36.2167 27.9004 37.4711 27.9004 39.0627C27.9004 40.6328 26.6164 41.9088 25.0403 41.9088H18.3334C16.951 41.9088 15.829 43.0253 15.829 44.401C15.829 45.7767 16.951 46.8932 18.3334 46.8932H25.0403C29.3797 46.8932 32.9092 43.3809 32.9092 39.0627C32.9092 34.6931 29.3446 31.2323 25.0403 31.2323Z" fill="white"/>
<path d="M70.6428 31.2323H67.9597C66.4003 31.2323 65.0996 29.9779 65.0996 28.3863C65.0996 26.8345 66.3602 25.5402 67.9597 25.5402H74.6666C76.049 25.5402 77.171 24.4237 77.171 23.048C77.171 21.6724 76.049 20.5559 74.6666 20.5559H67.9597C63.5686 20.5559 60.0908 24.1031 60.0908 28.3863C60.0908 32.7559 63.6554 36.2167 67.9597 36.2167H70.6428C72.2022 36.2167 73.5029 37.4711 73.5029 39.0627C73.5029 40.6328 72.2189 41.9088 70.6428 41.9088H63.9359C62.5535 41.9088 61.4315 43.0253 61.4315 44.401C61.4315 45.7767 62.5535 46.8932 63.9359 46.8932H70.6428C74.9822 46.8932 78.5117 43.3809 78.5117 39.0627C78.5117 34.6931 74.9471 31.2323 70.6428 31.2323Z" fill="white"/>
<path d="M46.5 20.5559C41.421 20.5559 37.2887 24.668 37.2887 29.7221V37.7303C37.2887 42.7844 41.421 46.8965 46.5 46.8965C51.579 46.8965 55.7113 42.7844 55.7113 37.7303V29.7221C55.7113 24.6663 51.579 20.5559 46.5 20.5559ZM50.7024 37.7286C50.7024 40.0347 48.8174 41.9105 46.5 41.9105C44.1826 41.9105 42.2976 40.0347 42.2976 37.7286V29.7204C42.2976 27.4143 44.1826 25.5386 46.5 25.5386C48.8174 25.5386 50.7024 27.4143 50.7024 29.7204V37.7286Z" fill="white"/>
<path d="M82.448 0H10.552C4.72337 0 0 4.69193 0 10.5004V56.9503C0 62.7505 4.71502 67.4507 10.552 67.4507H18.7783V83.5088C18.7783 84.5173 19.3877 85.4261 20.3244 85.8115C21.1976 86.1704 22.2895 86.0308 23.0542 85.2716L43.7809 67.4507H82.448C88.2766 67.4507 93 62.7588 93 56.9503V10.5004C93 4.70024 88.285 0 82.448 0ZM87.9911 56.9503C87.9911 59.9991 85.5134 62.4663 82.448 62.4663H42.7424C42.0779 62.4663 41.4418 62.7289 40.971 63.1957L23.7872 77.4927V64.9585C23.7872 63.5828 22.6652 62.4663 21.2827 62.4663H10.552C7.48827 62.4663 5.00888 60.0008 5.00888 56.9503V10.5004C5.00888 7.4516 7.4866 4.98434 10.552 4.98434H82.448C85.5117 4.98434 87.9911 7.44993 87.9911 10.5004V56.9503Z" fill="white"/>
</svg>
