<svg width="97" height="97" viewBox="0 0 97 97" fill="none" xmlns="http://www.w3.org/2000/svg">
<path d="M94.5177 46.0177H91.0081L90.9852 45.6606C89.5837 24.4619 72.54 7.41821 51.3413 6.01667L50.9823 5.99185V2.48228C50.9823 1.11321 49.8691 0 48.5 0C47.1309 0 46.0177 1.11321 46.0177 2.48228V5.99185L45.6606 6.01476C24.4619 7.4163 7.41821 24.46 6.01667 45.6587L5.99185 46.0177H2.48228C1.11321 46.0177 0 47.1309 0 48.5C0 49.8691 1.11321 50.9823 2.48228 50.9823H5.99185L6.01476 51.3394C7.4163 72.538 24.46 89.5818 45.6587 90.9833L46.0158 91.0062V94.5177C46.0158 95.8868 47.129 97 48.4981 97C49.8672 97 50.9804 95.8868 50.9804 94.5177V91.0081L51.3374 90.9852C72.5361 89.5837 89.5799 72.54 90.9814 51.3413L91.0043 50.9842H94.5177C95.8868 50.9842 97 49.871 97 48.5019C97 47.1328 95.8868 46.0177 94.5177 46.0177ZM10.9946 45.6072C11.6763 36.6881 15.5544 28.2751 21.9147 21.9147C28.2751 15.5544 36.6901 11.6763 45.6072 10.9946L46.0177 10.9641V23.2265L45.6778 23.2647C39.9934 23.8968 34.6221 26.486 30.5531 30.555C26.4841 34.624 23.8948 39.9972 23.2628 45.6797L23.2246 46.0196H10.9621L10.9946 45.6072ZM46.0177 86.0379L45.6072 86.0073C36.6881 85.3256 28.2751 81.4475 21.9147 75.0872C15.5544 68.7268 11.6763 60.3119 10.9946 51.3947L10.9621 50.9823H23.2246L23.2628 51.3222C23.8948 57.0066 26.4841 62.3779 30.5531 66.4469C34.6221 70.5159 39.9953 73.1052 45.6778 73.7372L46.0177 73.7754V86.0379ZM48.5 63.2028C47.1309 63.2028 46.0177 64.316 46.0177 65.685V68.7841L45.5824 68.7211C36.6748 67.4417 29.5583 60.3252 28.2789 51.4176L28.2159 50.9823H31.315C32.684 50.9823 33.7972 49.8691 33.7972 48.5C33.7972 47.1309 32.684 46.0177 31.315 46.0177H28.2159L28.2789 45.5824C29.5583 36.6748 36.6748 29.5583 45.5824 28.2789L46.0177 28.2159V31.315C46.0177 32.684 47.1309 33.7972 48.5 33.7972C49.8691 33.7972 50.9823 32.684 50.9823 31.315V28.2159L51.4176 28.2789C60.3252 29.5583 67.4417 36.6748 68.7211 45.5824L68.7841 46.0177H65.685C64.316 46.0177 63.2028 47.1309 63.2028 48.5C63.2028 49.8691 64.316 50.9823 65.685 50.9823H68.7841L68.7211 51.4176C67.4417 60.3252 60.3252 67.4417 51.4176 68.7211L50.9823 68.7841V65.685C50.9823 64.316 49.8691 63.2028 48.5 63.2028ZM86.0054 51.3928C85.3237 60.3118 81.4456 68.7268 75.0853 75.0853C68.7249 81.4456 60.3099 85.3237 51.3928 86.0054L50.9823 86.0359V73.7754L51.3222 73.7372C57.0066 73.1052 62.3779 70.5159 66.4469 66.4469C70.5159 62.3779 73.1052 57.0047 73.7372 51.3222L73.7754 50.9823H86.0359L86.0054 51.3928ZM73.7754 46.0177L73.7372 45.6778C73.1052 39.9934 70.5159 34.6221 66.4469 30.5531C62.3779 26.4841 57.0047 23.8948 51.3222 23.2628L50.9823 23.2246V10.9621L51.3928 10.9927C60.3118 11.6744 68.7268 15.5525 75.0853 21.9128C81.4456 28.2732 85.3237 36.6881 86.0054 45.6053L86.0359 46.0158H73.7754V46.0177Z" fill="white"/>
<path d="M48.5001 44.3753C46.2259 44.3753 44.3757 46.2255 44.3757 48.4997C44.3757 50.7738 46.2259 52.6241 48.5001 52.6241C50.7742 52.6241 52.6245 50.7738 52.6245 48.4997C52.6245 46.2255 50.7742 44.3753 48.5001 44.3753Z" fill="white"/>
</svg>
