<svg width="96" height="91" viewBox="0 0 96 91" fill="none" xmlns="http://www.w3.org/2000/svg">
<path d="M95.0553 0.597637C94.317 -0.0134054 93.3044 -0.169266 92.4104 0.192046L11.1373 33.2822C9.31386 34.1058 8.21095 35.9088 8.32779 37.8748C8.4464 39.8602 9.75112 41.5127 11.6507 42.0794L43.148 51.6064L44.3005 73.2266C44.3642 74.2663 45.0741 75.1926 46.0531 75.5256C46.3133 75.6265 46.6143 75.6797 46.9205 75.6797C47.6836 75.6797 48.3793 75.3697 48.8785 74.8083L59.8597 62.6459L75.4703 73.4569C76.2563 74.0077 77.1769 74.2982 78.1311 74.2982C80.3263 74.2982 82.2595 72.7201 82.7251 70.5398L95.9493 3.11619C96.1387 2.18989 95.7882 1.20159 95.0553 0.597637ZM83.3146 9.54365L44.9413 46.6826L14.6283 37.5205L83.3146 9.54365ZM89.0203 11.3059L77.7558 68.6961L49.7584 49.3039L89.0203 11.3059ZM55.5313 59.6403L49.1671 66.677L48.5439 54.8086L55.5313 59.6403Z" fill="white"/>
<path d="M20.6279 55.8872C21.5131 54.9078 21.4352 53.3952 20.4562 52.5097C19.4772 51.6241 17.9654 51.702 17.0802 52.6815L0.616322 70.9242C-0.268833 71.9036 -0.190939 73.4162 0.788042 74.3017C1.24478 74.7144 1.81836 74.9181 2.3884 74.9181C3.04165 74.9181 3.69135 74.6524 4.16225 74.1299L20.6279 55.8872Z" fill="white"/>
<path d="M37.2653 68.5916C36.2863 67.706 34.7744 67.7839 33.8893 68.7634L17.4254 87.0061C16.5403 87.9855 16.6182 89.4981 17.5971 90.3837C18.0539 90.7963 18.6275 91 19.1975 91C19.8507 91 20.5004 90.7343 20.9713 90.2119L37.4352 71.9691C38.3222 70.9897 38.2443 69.4771 37.2653 68.5916Z" fill="white"/>
<path d="M23.8198 65.7064C22.8408 64.8208 21.3289 64.8988 20.4438 65.8782L3.97991 84.1209C3.09476 85.1003 3.17265 86.6129 4.15163 87.4985C4.60837 87.9111 5.18195 88.1148 5.75199 88.1148C6.40524 88.1148 7.05494 87.8492 7.52584 87.3267L23.9897 69.084C24.8766 68.1027 24.7988 66.5902 23.8198 65.7064Z" fill="white"/>
</svg>
