<svg width="54" height="39" viewBox="0 0 54 39" fill="none" xmlns="http://www.w3.org/2000/svg">
<path d="M47.8675 0H5.51931C2.47726 0 0 2.47726 0 5.51931V33.3507C0 36.3927 2.47726 38.87 5.51931 38.87H47.8787C50.9208 38.87 53.398 36.3927 53.398 33.3507V5.51931C53.3868 2.47726 50.904 0 47.8675 0ZM50.0652 33.3395C50.0652 34.553 49.081 35.5372 47.8675 35.5372H5.51931C4.30584 35.5372 3.32165 34.553 3.32165 33.3395V5.51931C3.32165 4.30584 4.30584 3.32165 5.51931 3.32165H47.8787C49.0922 3.32165 50.0764 4.30584 50.0764 5.51931L50.0652 33.3395Z" fill="#333333"/>
<path d="M45.8432 17.9168H34.5027C33.6639 17.9168 32.9816 18.599 32.9816 19.4378C32.9816 20.2766 33.6639 20.9588 34.5027 20.9588H45.8432C46.682 20.9588 47.3643 20.2766 47.3643 19.4378C47.3643 18.599 46.682 17.9168 45.8432 17.9168Z" fill="#333333"/>
<path d="M45.8432 23.4137H34.5027C33.6639 23.4137 32.9816 24.0959 32.9816 24.9347C32.9816 25.7735 33.6639 26.4558 34.5027 26.4558H45.8432C46.682 26.4558 47.3643 25.7735 47.3643 24.9347C47.3643 24.0959 46.682 23.4137 45.8432 23.4137Z" fill="#333333"/>
<path d="M34.5027 15.4619H39.418C40.2568 15.4619 40.939 14.7797 40.939 13.9409C40.939 13.1021 40.2568 12.4198 39.418 12.4198H34.5027C33.6639 12.4198 32.9816 13.1021 32.9816 13.9409C32.9816 14.7797 33.6639 15.4619 34.5027 15.4619Z" fill="#333333"/>
<path d="M26.6571 7.74492H10.8485C8.60609 7.74492 6.76632 9.57351 6.75514 11.8271V27.0317C6.75514 29.2741 8.58372 31.1139 10.8373 31.1251H26.6571C28.8995 31.1251 30.7392 29.2965 30.7504 27.0429V11.8383C30.7504 9.58469 28.9162 7.74492 26.6571 7.74492ZM12.2577 27.9656C12.3304 25.0801 14.3043 22.5749 17.1115 21.8424C17.6428 21.7026 18.0454 21.2664 18.1349 20.724C18.2243 20.1815 17.9951 19.6335 17.5365 19.3315C16.9326 18.9233 16.5691 18.2467 16.5691 17.5197C16.5691 16.3175 17.5477 15.3389 18.75 15.3389C19.9523 15.3389 20.9309 16.3175 20.9309 17.5197C20.9309 18.2467 20.5674 18.9233 19.9634 19.3315C19.5049 19.6391 19.2756 20.1871 19.3651 20.724C19.4546 21.2608 19.8572 21.7026 20.3884 21.8424C23.19 22.5749 25.164 25.0689 25.2423 27.9488L12.2577 27.9656ZM27.714 25.6617C27.0373 23.2068 25.3709 21.121 23.1117 19.9187C23.5088 19.1973 23.7269 18.3697 23.7269 17.5197C23.7269 14.7741 21.4957 12.5429 18.75 12.5429C16.0043 12.5429 13.7731 14.7741 13.7731 17.5197C13.7731 18.3753 13.9912 19.1973 14.3882 19.9187C12.1291 21.1154 10.4626 23.2012 9.786 25.6617V11.7935C9.786 11.2343 10.2837 10.787 10.8932 10.787H26.7074C26.713 10.787 26.7186 10.787 26.7242 10.787C27.261 10.787 27.7028 11.212 27.7084 11.7376V25.6617H27.714Z" fill="#333333"/>
</svg>
